<svg xmlns="http://www.w3.org/2000/svg" version="1.1" xmlns:xlink="http://www.w3.org/1999/xlink" xmlns:svgjs="http://svgjs.dev/svgjs" width="1000" height="623" viewBox="0 0 1000 623"><g transform="matrix(1,0,0,1,-0.6060606060606233,0.2522267206477409)"><svg viewBox="0 0 396 247" data-background-color="#ffffff" preserveAspectRatio="xMidYMid meet" height="623" width="1000" xmlns="http://www.w3.org/2000/svg" xmlns:xlink="http://www.w3.org/1999/xlink"><g id="tight-bounds" transform="matrix(1,0,0,1,0.2400000000000091,-0.09999999999999432)"><svg viewBox="0 0 395.52 247.2" height="247.2" width="395.52"><g><svg></svg></g><g><svg viewBox="0 0 395.52 247.2" height="247.2" width="395.52"><g transform="matrix(1,0,0,1,75.54432,99.85343005181346)"><svg viewBox="0 0 244.43135999999998 47.49313989637305" height="47.49313989637305" width="244.43135999999998"><g><svg viewBox="0 0 244.43136 47.49313989637306" height="47.49313989637305" width="244.43135999999998"><g><svg viewBox="0 0 244.43136 47.49313989637306" height="47.49313989637306" width="244.43136"><g id="textblocktransform"><svg viewBox="0 0 244.43136 47.49313989637306" height="47.49313989637306" width="244.43136" id="textblock"><g><svg viewBox="0 0 244.43136 47.49313989637306" height="47.49313989637306" width="244.43136"><g transform="matrix(1,0,0,1,0,0)"><svg width="244.43136" viewBox="0.95 -42.19 226.16000000000003 43.949999999999996" height="47.49313989637306" data-palette-color="#10af8c"><path d="M18.6-24.61L18.6-24.61 15.65-24.61Q13.77-24.61 12.94-25.57 12.11-26.54 12.11-28.13L12.11-28.13Q12.11-31.64 17.36-31.64L17.36-31.64Q22.29-31.64 24.78-30.18L24.78-30.18 23.36-29.1Q21.66-29.88 17.36-29.88L17.36-29.88Q15.26-29.88 14.54-29.42 13.82-28.96 13.82-28.13 13.82-27.29 14.21-26.83 14.6-26.37 15.65-26.37L15.65-26.37 18.68-26.37Q21.97-26.37 24.62-25.24 27.27-24.12 28.98-22.18 30.69-20.24 31.59-17.71 32.5-15.19 32.5-12.3L32.5-12.3Q32.5-9.96 31.84-7.86 31.18-5.76 29.85-4 28.52-2.25 26.65-0.96 24.78 0.32 22.2 1.04 19.63 1.76 16.63 1.76L16.63 1.76Q11.91 1.76 7.8 0.33 3.69-1.1 0.95-3.66L0.95-3.66 2.37-4.71Q4.86-2.47 8.61-1.23 12.35 0 16.63 0L16.63 0Q19.97 0 22.67-0.96 25.37-1.93 27.11-3.61 28.86-5.3 29.8-7.52 30.74-9.74 30.74-12.3L30.74-12.3Q30.74-15.7 29.37-18.44 28-21.19 25.21-22.9 22.41-24.61 18.6-24.61ZM15.65-22.85L15.65-22.85 18.43-22.85Q23.39-22.85 26.18-19.82 28.98-16.8 28.98-12.3L28.98-12.3Q28.98-7.74 25.73-4.75 22.49-1.76 16.63-1.76L16.63-1.76Q12.72-1.76 9.33-2.83 5.93-3.91 3.69-5.86L3.69-5.86 5.05-6.96Q7.06-5.32 10.1-4.42 13.13-3.52 16.63-3.52L16.63-3.52Q21.78-3.52 24.5-5.98 27.22-8.45 27.22-12.3L27.22-12.3Q27.22-16.11 24.94-18.6 22.66-21.09 18.41-21.09L18.41-21.09 15.65-21.09Q12.08-21.09 10.3-23.05 8.52-25 8.52-28.13 8.52-31.25 10.73-33.2 12.94-35.16 17.36-35.16L17.36-35.16Q20.46-35.16 23.12-34.44 25.78-33.72 27.51-32.37L27.51-32.37 26.12-31.3Q23.07-33.4 17.36-33.4L17.36-33.4Q13.67-33.4 11.98-31.95 10.28-30.49 10.28-28.13L10.28-28.13Q10.28-25.73 11.54-24.29 12.79-22.85 15.65-22.85ZM15.65-19.34L15.65-19.34 18.33-19.34Q21.9-19.34 23.68-17.36 25.46-15.38 25.46-12.3L25.46-12.3Q25.46-9.18 23.25-7.23 21.04-5.27 16.63-5.27L16.63-5.27Q13.53-5.27 10.85-5.99 8.18-6.71 6.45-8.06L6.45-8.06 7.84-9.13Q10.89-7.03 16.63-7.03L16.63-7.03Q20.31-7.03 22.01-8.48 23.71-9.94 23.71-12.3 23.71-14.67 22.44-16.13 21.17-17.58 18.31-17.58L18.31-17.58 15.65-17.58Q10.64-17.58 7.82-20.57 5-23.56 5-28.13 5-32.69 8.25-35.68 11.5-38.67 17.36-38.67L17.36-38.67Q21.26-38.67 24.65-37.6 28.03-36.52 30.27-34.57L30.27-34.57 28.91-33.47Q26.9-35.11 23.88-36.01 20.85-36.91 17.36-36.91L17.36-36.91Q12.21-36.91 9.48-34.45 6.76-31.98 6.76-28.13L6.76-28.13Q6.76-24.29 9.06-21.81 11.35-19.34 15.65-19.34ZM15.65-15.82L15.65-15.82 18.33-15.82Q20.21-15.82 21.04-14.84 21.88-13.87 21.88-12.3L21.88-12.3Q21.88-8.79 16.63-8.79L16.63-8.79Q11.67-8.79 9.18-10.25L9.18-10.25 10.6-11.33Q12.3-10.55 16.63-10.55L16.63-10.55Q18.73-10.55 19.45-11.01 20.17-11.47 20.17-12.3L20.17-12.3Q20.17-13.11 19.76-13.59 19.36-14.06 18.29-14.06L18.29-14.06 15.65-14.06Q12.28-14.06 9.56-15.16 6.84-16.26 5.09-18.19 3.34-20.12 2.42-22.66 1.49-25.2 1.49-28.13L1.49-28.13Q1.49-30.47 2.15-32.57 2.81-34.67 4.14-36.43 5.47-38.18 7.34-39.47 9.2-40.75 11.78-41.47 14.36-42.19 17.36-42.19L17.36-42.19Q22.07-42.19 26.17-40.76 30.27-39.33 33.01-36.77L33.01-36.77 31.59-35.72Q29.1-37.96 25.37-39.2 21.63-40.43 17.36-40.43L17.36-40.43Q14.01-40.43 11.32-39.47 8.62-38.5 6.87-36.82 5.13-35.13 4.19-32.91 3.25-30.69 3.25-28.13L3.25-28.13Q3.25-24.68 4.64-21.92 6.03-19.17 8.89-17.49 11.74-15.82 15.65-15.82ZM61.96-38.67L35.59-38.67 35.59-40.43 61.96-40.43 61.96-38.67ZM61.96-35.16L35.59-35.16 35.59-36.91 61.96-36.91 61.96-35.16ZM42.62-31.64L35.59-31.64 35.59-33.4 61.96-33.4 61.96-31.64 54.93-31.64 54.93 0 53.17 0 53.17-31.64 51.41-31.64 51.41 0 49.66 0 49.66-31.64 47.9-31.64 47.9 0 46.14 0 46.14-31.64 44.38-31.64 44.38 0 42.62 0 42.62-31.64ZM69.79-40.43L79.46-20.34 78.58-18.41 68.04-40.43 69.79-40.43ZM73.31-40.43L81.22-24.19 80.32-22.27 71.55-40.43 73.31-40.43ZM76.83-40.43L82.98-28.03 82.1-26.1 75.07-40.43 76.83-40.43ZM80.76 0L80.76-13.62 93.48-40.43 95.23-40.43 82.51-13.62 82.51 0 80.76 0ZM84.27 0L84.27-13.62 96.99-40.43 98.75-40.43 86.03-13.62 86.03 0 84.27 0ZM87.79 0L87.79-13.62 100.51-40.43 102.27-40.43 89.55-13.62 89.55 0 87.79 0ZM66.28-40.43L78.12-15.48 89.96-40.43 91.72-40.43 79-13.62 79 0 77.24 0 77.24-13.62 64.52-40.43 66.28-40.43ZM105.39 0L105.39-40.43 107.15-40.43 107.15 0 105.39 0ZM115.93 0L115.93-40.43 117.69-40.43 117.69-8.79 131.76-8.79 131.76-7.03 117.69-7.03 117.69-5.27 131.76-5.27 131.76-3.52 117.69-3.52 117.69-1.76 131.76-1.76 131.76 0 115.93 0ZM112.42 0L112.42-40.43 114.18-40.43 114.18 0 112.42 0ZM108.9 0L108.9-40.43 110.66-40.43 110.66 0 108.9 0ZM146.18 0L146.18-40.43 147.94-40.43 147.94 0 146.18 0ZM142.67 0L142.67-40.43 144.42-40.43 144.42 0 142.67 0ZM139.15 0L139.15-40.43 140.91-40.43 140.91 0 139.15 0ZM135.63 0L135.63-40.43 137.39-40.43 137.39 0 135.63 0ZM168.91-24.61L168.91-24.61 165.95-24.61Q164.07-24.61 163.24-25.57 162.41-26.54 162.41-28.13L162.41-28.13Q162.41-31.64 167.66-31.64L167.66-31.64Q172.59-31.64 175.09-30.18L175.09-30.18 173.67-29.1Q171.96-29.88 167.66-29.88L167.66-29.88Q165.56-29.88 164.84-29.42 164.12-28.96 164.12-28.13 164.12-27.29 164.51-26.83 164.9-26.37 165.95-26.37L165.95-26.37 168.98-26.37Q172.28-26.37 174.93-25.24 177.58-24.12 179.28-22.18 180.99-20.24 181.9-17.71 182.8-15.19 182.8-12.3L182.8-12.3Q182.8-9.96 182.14-7.86 181.48-5.76 180.15-4 178.82-2.25 176.95-0.96 175.09 0.32 172.51 1.04 169.93 1.76 166.93 1.76L166.93 1.76Q162.22 1.76 158.11 0.33 153.99-1.1 151.26-3.66L151.26-3.66 152.67-4.71Q155.16-2.47 158.91-1.23 162.66 0 166.93 0L166.93 0Q170.28 0 172.97-0.96 175.67-1.93 177.42-3.61 179.16-5.3 180.1-7.52 181.04-9.74 181.04-12.3L181.04-12.3Q181.04-15.7 179.68-18.44 178.31-21.19 175.51-22.9 172.72-24.61 168.91-24.61ZM165.95-22.85L165.95-22.85 168.74-22.85Q173.69-22.85 176.49-19.82 179.28-16.8 179.28-12.3L179.28-12.3Q179.28-7.74 176.04-4.75 172.79-1.76 166.93-1.76L166.93-1.76Q163.02-1.76 159.63-2.83 156.24-3.91 153.99-5.86L153.99-5.86 155.36-6.96Q157.36-5.32 160.4-4.42 163.44-3.52 166.93-3.52L166.93-3.52Q172.08-3.52 174.8-5.98 177.53-8.45 177.53-12.3L177.53-12.3Q177.53-16.11 175.24-18.6 172.96-21.09 168.71-21.09L168.71-21.09 165.95-21.09Q162.39-21.09 160.61-23.05 158.83-25 158.83-28.13 158.83-31.25 161.03-33.2 163.24-35.16 167.66-35.16L167.66-35.16Q170.76-35.16 173.43-34.44 176.09-33.72 177.82-32.37L177.82-32.37 176.43-31.3Q173.38-33.4 167.66-33.4L167.66-33.4Q163.98-33.4 162.28-31.95 160.58-30.49 160.58-28.13L160.58-28.13Q160.58-25.73 161.84-24.29 163.1-22.85 165.95-22.85ZM165.95-19.34L165.95-19.34 168.64-19.34Q172.2-19.34 173.99-17.36 175.77-15.38 175.77-12.3L175.77-12.3Q175.77-9.18 173.56-7.23 171.35-5.27 166.93-5.27L166.93-5.27Q163.83-5.27 161.16-5.99 158.48-6.71 156.75-8.06L156.75-8.06 158.14-9.13Q161.19-7.03 166.93-7.03L166.93-7.03Q170.62-7.03 172.31-8.48 174.01-9.94 174.01-12.3 174.01-14.67 172.74-16.13 171.47-17.58 168.62-17.58L168.62-17.58 165.95-17.58Q160.95-17.58 158.13-20.57 155.31-23.56 155.31-28.13 155.31-32.69 158.56-35.68 161.8-38.67 167.66-38.67L167.66-38.67Q171.57-38.67 174.95-37.6 178.33-36.52 180.58-34.57L180.58-34.57 179.21-33.47Q177.21-35.11 174.18-36.01 171.15-36.91 167.66-36.91L167.66-36.91Q162.51-36.91 159.79-34.45 157.07-31.98 157.07-28.13L157.07-28.13Q157.07-24.29 159.36-21.81 161.66-19.34 165.95-19.34ZM165.95-15.82L165.95-15.82 168.64-15.82Q170.52-15.82 171.35-14.84 172.18-13.87 172.18-12.3L172.18-12.3Q172.18-8.79 166.93-8.79L166.93-8.79Q161.97-8.79 159.48-10.25L159.48-10.25 160.9-11.33Q162.61-10.55 166.93-10.55L166.93-10.55Q169.03-10.55 169.75-11.01 170.47-11.47 170.47-12.3L170.47-12.3Q170.47-13.11 170.07-13.59 169.67-14.06 168.59-14.06L168.59-14.06 165.95-14.06Q162.59-14.06 159.86-15.16 157.14-16.26 155.4-18.19 153.65-20.12 152.72-22.66 151.79-25.2 151.79-28.13L151.79-28.13Q151.79-30.47 152.45-32.57 153.11-34.67 154.44-36.43 155.77-38.18 157.64-39.47 159.51-40.75 162.08-41.47 164.66-42.19 167.66-42.19L167.66-42.19Q172.38-42.19 176.48-40.76 180.58-39.33 183.31-36.77L183.31-36.77 181.9-35.72Q179.41-37.96 175.67-39.2 171.94-40.43 167.66-40.43L167.66-40.43Q164.32-40.43 161.62-39.47 158.92-38.5 157.18-36.82 155.43-35.13 154.49-32.91 153.55-30.69 153.55-28.13L153.55-28.13Q153.55-24.68 154.94-21.92 156.34-19.17 159.19-17.49 162.05-15.82 165.95-15.82ZM225.35 0L225.35-40.43 227.11-40.43 227.11 0 225.35 0ZM186.68 0L186.68-40.43 188.44-40.43 188.44 0 186.68 0ZM221.84 0L221.84-40.43 223.59-40.43 223.59 0 221.84 0ZM218.32 0L218.32-40.43 220.08-40.43 220.08 0 218.32 0ZM214.8-24.63L214.8-40.43 216.56-40.43 216.56 0 214.8 0 214.8-15.84 198.98-15.84 198.98 0 197.23 0 197.23-40.43 198.98-40.43 198.98-24.63 214.8-24.63ZM193.71 0L193.71-40.43 195.47-40.43 195.47 0 193.71 0ZM190.19 0L190.19-40.43 191.95-40.43 191.95 0 190.19 0ZM198.98-17.6L214.8-17.6 214.8-19.36 198.98-19.36 198.98-17.6ZM198.98-21.12L214.8-21.12 214.8-22.88 198.98-22.88 198.98-21.12Z" opacity="1" transform="matrix(1,0,0,1,0,0)" fill="#10af8c" class="wordmark-text-0" data-fill-palette-color="primary" id="text-0"></path></svg></g></svg></g></svg></g></svg></g></svg></g></svg></g><path d="M189.284 93.853L189.284 32.875 7.834 32.875 7.834 214.325 189.284 214.325 189.284 153.347 185.001 153.347 185.001 210.042 12.117 210.042 12.117 37.158 185.001 37.158 185.001 93.853Z" fill="#10af8c" stroke="transparent" data-fill-palette-color="primary"></path></svg></g><defs></defs></svg><rect width="395.52" height="247.2" fill="none" stroke="none" visibility="hidden"></rect></g></svg></g></svg>