<svg id="visual" viewBox="0 0 600 900" width="600" height="900" xmlns="http://www.w3.org/2000/svg" xmlns:xlink="http://www.w3.org/1999/xlink" version="1.1"><g transform="translate(304.54932017162855 460.23913420918575)"><path d="M279.6 -335C347 -276.6 375.9 -174 360.8 -88.9C345.6 -3.8 286.5 63.7 243.5 143C200.6 222.2 173.8 313.1 113.6 352.6C53.4 392.2 -40.4 380.3 -140.6 356.7C-240.9 333.1 -347.8 297.8 -369.4 228.6C-391.1 159.5 -327.5 56.5 -293.4 -36.9C-259.3 -130.4 -254.7 -214.2 -210.7 -276.8C-166.7 -339.3 -83.3 -380.7 11.4 -394.2C106.1 -407.7 212.1 -393.5 279.6 -335" fill="#366bc0"></path></g></svg>