<svg xmlns="http://www.w3.org/2000/svg" version="1.1" xmlns:xlink="http://www.w3.org/1999/xlink" xmlns:svgjs="http://svgjs.dev/svgjs" width="1000" height="285" viewBox="0 0 1000 285"><g transform="matrix(1,0,0,1,0.10666666666668334,-0.6264494423760425)"><svg viewBox="0 0 375 107" data-background-color="#10af8c" preserveAspectRatio="xMidYMid meet" height="285" width="1000" xmlns="http://www.w3.org/2000/svg" xmlns:xlink="http://www.w3.org/1999/xlink"><g id="tight-bounds" transform="matrix(1,0,0,1,-0.03976000000000113,0.2354232994183576)"><svg viewBox="0 0 375.07953 106.5293834011633" height="106.5293834011633" width="375.07953"><g><svg></svg></g><g><svg viewBox="0 0 375.07953 106.5293834011633" height="106.5293834011633" width="375.07953"><g transform="matrix(1,0,0,1,-10.22024,-73.43623)"><path d="M10.22 173.764v-100.328h375.08v100.328l-21.565 0 0-2.589h18.976v-95.15h-369.902v95.15h26.997l0 2.589z" fill="#ffffff" fill-rule="nonzero" stroke="none" stroke-width="1" stroke-linecap="butt" stroke-linejoin="miter" stroke-miterlimit="10" stroke-dasharray="" stroke-dashoffset="0" font-family="none" font-weight="none" font-size="none" text-anchor="none" style="mix-blend-mode: normal" data-fill-palette-color="tertiary"></path><g><path transform="translate(46.86293,179.7623) scale(0.40518,0.40518)" d="M14.15 0.5v0c-2.6 0.033-4.833-0.4-6.7-1.3-1.867-0.9-3.667-2.217-5.4-3.95v0c-0.067-0.067-0.133-0.16-0.2-0.28-0.067-0.113-0.1-0.27-0.1-0.47v0c0-0.267 0.117-0.527 0.35-0.78 0.233-0.247 0.483-0.37 0.75-0.37v0c0.3 0 0.583 0.15 0.85 0.45v0c1.333 1.533 2.893 2.7 4.68 3.5 1.78 0.8 3.637 1.2 5.57 1.2v0c1.7 0 3.217-0.277 4.55-0.83 1.333-0.547 2.383-1.327 3.15-2.34 0.767-1.02 1.15-2.213 1.15-3.58v0c-0.033-1.7-0.5-3.067-1.4-4.1-0.9-1.033-2.057-1.883-3.47-2.55-1.42-0.667-2.913-1.283-4.48-1.85v0c-1.233-0.467-2.45-0.95-3.65-1.45-1.2-0.5-2.283-1.11-3.25-1.83-0.967-0.713-1.733-1.613-2.3-2.7-0.567-1.08-0.85-2.42-0.85-4.02v0c0-1.633 0.443-3.11 1.33-4.43 0.88-1.313 2.147-2.363 3.8-3.15 1.647-0.78 3.603-1.17 5.87-1.17v0c1.9 0 3.75 0.34 5.55 1.02 1.8 0.687 3.217 1.713 4.25 3.08v0c0.333 0.467 0.5 0.817 0.5 1.05v0c0 0.233-0.123 0.467-0.37 0.7-0.253 0.233-0.53 0.35-0.83 0.35v0c-0.267 0-0.483-0.1-0.65-0.3v0c-0.6-0.8-1.323-1.493-2.17-2.08-0.853-0.58-1.813-1.027-2.88-1.34-1.067-0.32-2.2-0.48-3.4-0.48v0c-1.633 0-3.117 0.267-4.45 0.8-1.333 0.533-2.4 1.29-3.2 2.27-0.8 0.987-1.2 2.197-1.2 3.63v0c0 1.533 0.443 2.79 1.33 3.77 0.88 0.987 2.003 1.803 3.37 2.45 1.367 0.653 2.767 1.247 4.2 1.78v0c1.267 0.433 2.527 0.907 3.78 1.42 1.247 0.52 2.38 1.163 3.4 1.93 1.013 0.767 1.82 1.733 2.42 2.9 0.6 1.167 0.9 2.633 0.9 4.4v0c0 1.533-0.44 2.95-1.32 4.25-0.887 1.3-2.13 2.35-3.73 3.15-1.6 0.8-3.517 1.217-5.75 1.25zM70.1 0v0c-0.3 0-0.54-0.1-0.72-0.3-0.187-0.2-0.28-0.433-0.28-0.7v0-32.8h2v32.8c0 0.267-0.1 0.5-0.3 0.7-0.2 0.2-0.433 0.3-0.7 0.3zM82.25-33.1h-24.3c-0.267 0-0.5-0.093-0.7-0.28-0.2-0.18-0.3-0.403-0.3-0.67v0c0-0.267 0.1-0.493 0.3-0.68 0.2-0.18 0.433-0.27 0.7-0.27v0h24.3c0.267 0 0.5 0.09 0.7 0.27 0.2 0.187 0.3 0.413 0.3 0.68v0c0 0.3-0.1 0.533-0.3 0.7-0.2 0.167-0.433 0.25-0.7 0.25zM125.8-32.85l0.75 0.4-12.65 31.8c-0.067 0.2-0.183 0.357-0.35 0.47-0.167 0.12-0.35 0.18-0.55 0.18v0c-0.333 0-0.583-0.083-0.75-0.25-0.167-0.167-0.267-0.367-0.3-0.6v0c-0.033-0.133-0.017-0.3 0.05-0.5v0l13.45-33.1c0.1-0.267 0.227-0.443 0.38-0.53 0.147-0.08 0.337-0.12 0.57-0.12v0c0.267 0 0.483 0.057 0.65 0.17 0.167 0.12 0.283 0.28 0.35 0.48v0l13.45 33.1c0.033 0.1 0.05 0.233 0.05 0.4v0c0 0.3-0.1 0.533-0.3 0.7-0.2 0.167-0.45 0.25-0.75 0.25v0c-0.233 0-0.44-0.06-0.62-0.18-0.187-0.113-0.313-0.27-0.38-0.47v0zM134.7-10.85h-17.4l0.7-2h16.2zM193.56-35.2v0c0.333 0 0.583 0.117 0.75 0.35 0.167 0.233 0.25 0.433 0.25 0.6v0c0 0.133-0.017 0.25-0.05 0.35-0.033 0.1-0.083 0.2-0.15 0.3v0l-11.85 16.1 0.45-1.45v17.95c0 0.267-0.1 0.5-0.3 0.7-0.2 0.2-0.45 0.3-0.75 0.3v0c-0.333 0-0.593-0.1-0.78-0.3-0.18-0.2-0.27-0.433-0.27-0.7v0-17.6l0.25 1.05-11.7-16.05c-0.067-0.1-0.117-0.2-0.15-0.3-0.033-0.1-0.05-0.217-0.05-0.35v0c0-0.267 0.117-0.493 0.35-0.68 0.233-0.18 0.467-0.27 0.7-0.27v0c0.367 0 0.65 0.15 0.85 0.45v0l11.1 15.15-0.5-0.1 11-15.05c0.2-0.3 0.483-0.45 0.85-0.45zM270.51 0v0c-0.333 0-0.59-0.1-0.77-0.3-0.187-0.2-0.28-0.433-0.28-0.7v0-33c0-0.267 0.1-0.5 0.3-0.7 0.2-0.2 0.433-0.3 0.7-0.3v0h13.2c1.967 0 3.693 0.39 5.18 1.17 1.48 0.787 2.637 1.863 3.47 3.23 0.833 1.367 1.25 2.917 1.25 4.65v0c0 1.533-0.273 2.917-0.82 4.15-0.553 1.233-1.32 2.257-2.3 3.07-0.987 0.82-2.113 1.413-3.38 1.78v0l-2.3-0.4c1.333 0 2.6 0.343 3.8 1.03 1.2 0.68 2.183 1.677 2.95 2.99 0.767 1.32 1.15 2.93 1.15 4.83v0c0 1.633 0.077 2.873 0.23 3.72 0.147 0.853 0.347 1.48 0.6 1.88 0.247 0.4 0.537 0.717 0.87 0.95v0c0.2 0.133 0.35 0.3 0.45 0.5 0.1 0.2 0.117 0.433 0.05 0.7v0c-0.067 0.2-0.173 0.357-0.32 0.47-0.153 0.12-0.313 0.197-0.48 0.23-0.167 0.033-0.35 0-0.55-0.1v0c-0.467-0.267-0.923-0.667-1.37-1.2-0.453-0.533-0.83-1.35-1.13-2.45-0.3-1.1-0.45-2.667-0.45-4.7v0c0-1.567-0.24-2.817-0.72-3.75-0.487-0.933-1.103-1.65-1.85-2.15-0.753-0.5-1.553-0.833-2.4-1-0.853-0.167-1.63-0.25-2.33-0.25v0h-12.15l0.45-0.6v15.25c0 0.267-0.1 0.5-0.3 0.7-0.2 0.2-0.45 0.3-0.75 0.3zM271.56-17.1l-0.5-0.55h12.85c1.333-0.133 2.567-0.533 3.7-1.2 1.133-0.667 2.06-1.6 2.78-2.8 0.713-1.2 1.07-2.617 1.07-4.25v0c0-2.033-0.723-3.727-2.17-5.08-1.453-1.347-3.413-2.02-5.88-2.02v0h-12.1l0.25-0.35zM331.36-35v0h18.85c0.267 0 0.5 0.1 0.7 0.3 0.2 0.2 0.3 0.433 0.3 0.7v0c0 0.3-0.1 0.543-0.3 0.73-0.2 0.18-0.433 0.27-0.7 0.27v0h-18.25l0.5-0.85v15.5l-0.6-0.7h16.1c0.267 0 0.5 0.1 0.7 0.3 0.2 0.2 0.3 0.433 0.3 0.7v0c0 0.3-0.1 0.543-0.3 0.73-0.2 0.18-0.433 0.27-0.7 0.27v0h-16l0.5-0.55v15.85l-0.2-0.25h17.95c0.267 0 0.5 0.1 0.7 0.3 0.2 0.2 0.3 0.433 0.3 0.7v0c0 0.3-0.1 0.54-0.3 0.72-0.2 0.187-0.433 0.28-0.7 0.28v0h-18.85c-0.267 0-0.5-0.1-0.7-0.3-0.2-0.2-0.3-0.433-0.3-0.7v0-33c0-0.267 0.1-0.5 0.3-0.7 0.2-0.2 0.433-0.3 0.7-0.3zM387.41 0v0c-0.3 0-0.54-0.1-0.72-0.3-0.187-0.2-0.28-0.433-0.28-0.7v0-33c0-0.267 0.1-0.5 0.3-0.7 0.2-0.2 0.433-0.3 0.7-0.3v0h18.85c0.267 0 0.5 0.1 0.7 0.3 0.2 0.2 0.3 0.433 0.3 0.7v0c0 0.3-0.1 0.543-0.3 0.73-0.2 0.18-0.433 0.27-0.7 0.27v0h-18l0.15-0.2v14.4l-0.2-0.4h15.8c0.267 0 0.5 0.1 0.7 0.3 0.2 0.2 0.3 0.433 0.3 0.7v0c0 0.3-0.1 0.54-0.3 0.72-0.2 0.187-0.433 0.28-0.7 0.28v0h-15.9l0.3-0.4v16.6c0 0.267-0.09 0.5-0.27 0.7-0.187 0.2-0.43 0.3-0.73 0.3zM443.52 0v0c-0.333 0-0.593-0.1-0.78-0.3-0.18-0.2-0.27-0.433-0.27-0.7v0-33c0-0.267 0.1-0.5 0.3-0.7 0.2-0.2 0.433-0.3 0.7-0.3v0h13.2c1.967 0 3.69 0.39 5.17 1.17 1.487 0.787 2.647 1.863 3.48 3.23 0.833 1.367 1.25 2.917 1.25 4.65v0c0 1.533-0.277 2.917-0.83 4.15-0.547 1.233-1.313 2.257-2.3 3.07-0.98 0.82-2.103 1.413-3.37 1.78v0l-2.3-0.4c1.333 0 2.6 0.343 3.8 1.03 1.2 0.68 2.183 1.677 2.95 2.99 0.767 1.32 1.15 2.93 1.15 4.83v0c0 1.633 0.073 2.873 0.22 3.72 0.153 0.853 0.353 1.48 0.6 1.88 0.253 0.4 0.547 0.717 0.88 0.95v0c0.2 0.133 0.35 0.3 0.45 0.5 0.1 0.2 0.117 0.433 0.05 0.7v0c-0.067 0.2-0.177 0.357-0.33 0.47-0.147 0.12-0.303 0.197-0.47 0.23-0.167 0.033-0.35 0-0.55-0.1v0c-0.467-0.267-0.927-0.667-1.38-1.2-0.447-0.533-0.82-1.35-1.12-2.45-0.3-1.1-0.45-2.667-0.45-4.7v0c0-1.567-0.243-2.817-0.73-3.75-0.48-0.933-1.097-1.65-1.85-2.15-0.747-0.5-1.547-0.833-2.4-1-0.847-0.167-1.62-0.25-2.32-0.25v0h-12.15l0.45-0.6v15.25c0 0.267-0.1 0.5-0.3 0.7-0.2 0.2-0.45 0.3-0.75 0.3zM444.57-17.1l-0.5-0.55h12.85c1.333-0.133 2.567-0.533 3.7-1.2 1.133-0.667 2.057-1.6 2.77-2.8 0.72-1.2 1.08-2.617 1.08-4.25v0c0-2.033-0.727-3.727-2.18-5.08-1.447-1.347-3.403-2.02-5.87-2.02v0h-12.1l0.25-0.35zM504.37-35v0h18.85c0.267 0 0.5 0.1 0.7 0.3 0.2 0.2 0.3 0.433 0.3 0.7v0c0 0.3-0.1 0.543-0.3 0.73-0.2 0.18-0.433 0.27-0.7 0.27v0h-18.25l0.5-0.85v15.5l-0.6-0.7h16.1c0.267 0 0.5 0.1 0.7 0.3 0.2 0.2 0.3 0.433 0.3 0.7v0c0 0.3-0.1 0.543-0.3 0.73-0.2 0.18-0.433 0.27-0.7 0.27v0h-16l0.5-0.55v15.85l-0.2-0.25h17.95c0.267 0 0.5 0.1 0.7 0.3 0.2 0.2 0.3 0.433 0.3 0.7v0c0 0.3-0.1 0.54-0.3 0.72-0.2 0.187-0.433 0.28-0.7 0.28v0h-18.85c-0.267 0-0.5-0.1-0.7-0.3-0.2-0.2-0.3-0.433-0.3-0.7v0-33c0-0.267 0.1-0.5 0.3-0.7 0.2-0.2 0.433-0.3 0.7-0.3zM568.57 0.5v0c-2.6 0.033-4.833-0.4-6.7-1.3-1.867-0.9-3.667-2.217-5.4-3.95v0c-0.067-0.067-0.133-0.16-0.2-0.28-0.067-0.113-0.1-0.27-0.1-0.47v0c0-0.267 0.117-0.527 0.35-0.78 0.233-0.247 0.483-0.37 0.75-0.37v0c0.3 0 0.583 0.15 0.85 0.45v0c1.333 1.533 2.893 2.7 4.68 3.5 1.78 0.8 3.637 1.2 5.57 1.2v0c1.7 0 3.217-0.277 4.55-0.83 1.333-0.547 2.383-1.327 3.15-2.34 0.767-1.02 1.15-2.213 1.15-3.58v0c-0.033-1.7-0.5-3.067-1.4-4.1-0.9-1.033-2.057-1.883-3.47-2.55-1.42-0.667-2.913-1.283-4.48-1.85v0c-1.233-0.467-2.45-0.95-3.65-1.45-1.2-0.5-2.283-1.11-3.25-1.83-0.967-0.713-1.733-1.613-2.3-2.7-0.567-1.08-0.85-2.42-0.85-4.02v0c0-1.633 0.443-3.11 1.33-4.43 0.88-1.313 2.147-2.363 3.8-3.15 1.647-0.78 3.603-1.17 5.87-1.17v0c1.9 0 3.75 0.34 5.55 1.02 1.8 0.687 3.217 1.713 4.25 3.08v0c0.333 0.467 0.5 0.817 0.5 1.05v0c0 0.233-0.123 0.467-0.37 0.7-0.253 0.233-0.53 0.35-0.83 0.35v0c-0.267 0-0.483-0.1-0.65-0.3v0c-0.6-0.8-1.323-1.493-2.17-2.08-0.853-0.58-1.813-1.027-2.88-1.34-1.067-0.32-2.2-0.48-3.4-0.48v0c-1.633 0-3.117 0.267-4.45 0.8-1.333 0.533-2.4 1.29-3.2 2.27-0.8 0.987-1.2 2.197-1.2 3.63v0c0 1.533 0.443 2.79 1.33 3.77 0.88 0.987 2.003 1.803 3.37 2.45 1.367 0.653 2.767 1.247 4.2 1.78v0c1.267 0.433 2.527 0.907 3.78 1.42 1.247 0.52 2.38 1.163 3.4 1.93 1.013 0.767 1.82 1.733 2.42 2.9 0.6 1.167 0.9 2.633 0.9 4.4v0c0 1.533-0.44 2.95-1.32 4.25-0.887 1.3-2.13 2.35-3.73 3.15-1.6 0.8-3.517 1.217-5.75 1.25zM615.67-35v0c0.3 0 0.55 0.1 0.75 0.3 0.2 0.2 0.3 0.45 0.3 0.75v0 32.9c-0.033 0.3-0.15 0.55-0.35 0.75-0.2 0.2-0.433 0.3-0.7 0.3v0c-0.333 0-0.59-0.1-0.77-0.3-0.187-0.2-0.28-0.45-0.28-0.75v0-32.9c0-0.3 0.1-0.55 0.3-0.75 0.2-0.2 0.45-0.3 0.75-0.3zM639.57-35v0c0.3 0 0.55 0.1 0.75 0.3 0.2 0.2 0.3 0.45 0.3 0.75v0 32.9c-0.033 0.3-0.15 0.55-0.35 0.75-0.2 0.2-0.433 0.3-0.7 0.3v0c-0.333 0-0.59-0.1-0.77-0.3-0.187-0.2-0.28-0.45-0.28-0.75v0-32.9c0-0.3 0.1-0.55 0.3-0.75 0.2-0.2 0.45-0.3 0.75-0.3zM615.12-17l0.3-2h24.25l-0.1 2zM679.33-35v0h18.85c0.267 0 0.5 0.1 0.7 0.3 0.2 0.2 0.3 0.433 0.3 0.7v0c0 0.3-0.1 0.543-0.3 0.73-0.2 0.18-0.433 0.27-0.7 0.27v0h-18.25l0.5-0.85v15.5l-0.6-0.7h16.1c0.267 0 0.5 0.1 0.7 0.3 0.2 0.2 0.3 0.433 0.3 0.7v0c0 0.3-0.1 0.543-0.3 0.73-0.2 0.18-0.433 0.27-0.7 0.27v0h-16l0.5-0.55v15.85l-0.2-0.25h17.95c0.267 0 0.5 0.1 0.7 0.3 0.2 0.2 0.3 0.433 0.3 0.7v0c0 0.3-0.1 0.54-0.3 0.72-0.2 0.187-0.433 0.28-0.7 0.28v0h-18.85c-0.267 0-0.5-0.1-0.7-0.3-0.2-0.2-0.3-0.433-0.3-0.7v0-33c0-0.267 0.1-0.5 0.3-0.7 0.2-0.2 0.433-0.3 0.7-0.3zM735.38-35h13c2.5 0 4.667 0.473 6.5 1.42 1.833 0.953 3.34 2.253 4.52 3.9 1.187 1.653 2.063 3.53 2.63 5.63 0.567 2.1 0.85 4.283 0.85 6.55v0c0 3.2-0.51 6.127-1.53 8.78-1.013 2.647-2.587 4.76-4.72 6.34-2.133 1.587-4.883 2.38-8.25 2.38v0h-13c-0.267 0-0.5-0.1-0.7-0.3-0.2-0.2-0.3-0.433-0.3-0.7v0-33c0-0.267 0.1-0.5 0.3-0.7 0.2-0.2 0.433-0.3 0.7-0.3zM736.18-2h11.7c3.067 0 5.54-0.693 7.42-2.08 1.887-1.38 3.27-3.247 4.15-5.6 0.887-2.347 1.33-4.953 1.33-7.82v0c0-2.033-0.243-3.983-0.73-5.85-0.48-1.867-1.237-3.527-2.27-4.98-1.033-1.447-2.367-2.587-4-3.42-1.633-0.833-3.6-1.25-5.9-1.25v0h-11.7l0.3-0.4v31.85z" fill="#f9f9f9" fill-rule="nonzero" stroke="none" stroke-width="1" stroke-linecap="butt" stroke-linejoin="miter" stroke-miterlimit="10" stroke-dasharray="" stroke-dashoffset="0" font-family="none" font-weight="none" font-size="none" text-anchor="none" style="mix-blend-mode: normal" data-fill-palette-color="secondary"></path></g></g><g transform="matrix(1,0,0,1,29.33176499999999,34.47615261104798)"><svg viewBox="0 0 316.416 37.57707817906735" height="37.57707817906735" width="316.416"><g><svg viewBox="0 0 390.23984039209375 46.3442840785563" height="37.57707817906735" width="316.416"><g transform="matrix(1,0,0,1,73.82384039209377,5.46997088627727)"><svg viewBox="0 0 316.416 35.40434230600176" height="35.40434230600176" width="316.416"><g id="textblocktransform"><svg viewBox="0 0 316.416 35.40434230600176" height="35.40434230600176" width="316.416" id="textblock"><g><svg viewBox="0 0 316.416 35.40434230600176" height="35.40434230600176" width="316.416"><g transform="matrix(1,0,0,1,0,0)"><svg width="316.416" viewBox="4 -40.5 392.313466796875 43.9" height="35.40434230600176" data-palette-color="#ffffff"><g transform="matrix(1,0,0,1,0,0)"><g><svg width="18.09564453125" viewBox="1.78 -36.36 74.21 36.36" height="8.866000000000001" data-palette-color="#ffffff" id="scriptelement" x="378.217822265625" y="-8.866000000000001"><path d="M12.91-30.02L1.78-30.02 1.78-36.36 31.64-36.36 31.64-30.02 20.51-30.02 20.51 0 12.91 0 12.91-30.02ZM36.57 0L36.57-36.36 46.06-36.36 56.07-11.93 56.5-11.93 66.51-36.36 75.99-36.36 75.99 0 68.53 0 68.53-23.67 68.23-23.67 58.82-0.18 53.74-0.18 44.33-23.76 44.03-23.76 44.03 0 36.57 0Z" opacity="1" transform="matrix(1,0,0,1,0,0)" fill="#ffffff" class="undefined-123" data-fill-palette-color="primary" id="lv-123"></path></svg></g></g><path d="M26.6 0.05L7.15 0.05Q5.3 0.05 4.65-0.9 4-1.85 4-3L4-3 4-37.55Q4-39.95 6.9-39.95L6.9-39.95Q9.9-39.95 9.9-37.55L9.9-37.55 9.9-5 26.6-5Q28.4-5 28.4-2.55L28.4-2.55Q28.5 0.05 26.6 0.05L26.6 0.05ZM39.15-37.55L39.15-2.1Q39.15 0.3 36.15 0.3L36.15 0.3Q33.2 0.3 33.2-2.1L33.2-2.1 33.2-37.55Q33.2-39.95 36.15-39.95L36.15-39.95Q39.15-39.95 39.15-37.55L39.15-37.55ZM56.4-5L64.65-5Q66-5 67.15-5.73 68.3-6.45 68.3-8.15L68.3-8.15 68.2-31.3Q68.2-32.55 67.45-33.6 66.7-34.65 64.8-34.65L64.8-34.65 56.4-34.65Q54.55-34.65 53.77-33.6 53-32.55 53-31.3L53-31.3 53-8.4Q53-7.1 53.77-6.05 54.55-5 56.4-5L56.4-5ZM65.05-11.6L65.05-11.6Q65.05-9.85 63.85-8.65 62.65-7.45 60.9-7.45L60.9-7.45Q59.2-7.45 58-8.65 56.8-9.85 56.8-11.6L56.8-11.6Q56.8-13.3 58-14.5 59.2-15.7 60.9-15.7L60.9-15.7Q62.65-15.7 63.85-14.5 65.05-13.3 65.05-11.6ZM72.9-3.65L76.09-0.4Q76.59 0.1 76.59 0.85L76.59 0.85Q76.59 1.25 76.4 1.65 76.2 2.05 75.75 2.45L75.75 2.45Q74.84 3.4 74.15 3.4L74.15 3.4Q73.59 3.4 72.95 2.75L72.95 2.75 69.5-0.7Q67.55 0.05 66.09 0.05L66.09 0.05 55.2 0.05Q53.9 0.05 52.52-0.48 51.15-1 49.85-1.95L49.85-1.95Q47.15-3.95 47.15-8L47.15-8 47.15-31.75Q47.15-33.75 47.85-35.27 48.55-36.8 49.85-37.75L49.85-37.75 49.8-37.75Q51.05-38.6 52.47-39.15 53.9-39.7 55.2-39.7L55.2-39.7 66.09-39.7Q67.34-39.7 68.75-39.15 70.15-38.6 71.45-37.75L71.45-37.75 71.4-37.75Q72.7-36.8 73.4-35.27 74.09-33.75 74.09-31.75L74.09-31.75 74.09-8Q74.09-6.8 73.77-5.7 73.45-4.6 72.9-3.65L72.9-3.65ZM109.14-37.55L109.14-8Q109.14-3.95 106.44-1.95L106.44-1.95Q105.14-1 103.77-0.48 102.39 0.05 101.09 0.05L101.09 0.05 90.19 0.05Q88.89 0.05 87.52-0.48 86.14-1 84.84-1.95L84.84-1.95Q83.54-2.95 82.84-4.42 82.14-5.9 82.14-8L82.14-8 82.14-37.55Q82.14-39.95 85.09-39.95L85.09-39.95Q88.09-39.95 88.09-37.55L88.09-37.55 88.09-8.4Q88.09-7.1 88.84-6.05 89.59-5 91.44-5L91.44-5 99.84-5Q101.69-5 102.44-6.05 103.19-7.1 103.19-8.4L103.19-8.4 103.19-37.55Q103.19-39.95 106.14-39.95L106.14-39.95Q109.14-39.95 109.14-37.55L109.14-37.55ZM122.94-37.55L122.94-2.1Q122.94 0.3 119.94 0.3L119.94 0.3Q116.99 0.3 116.99-2.1L116.99-2.1 116.99-37.55Q116.99-39.95 119.94-39.95L119.94-39.95Q122.94-39.95 122.94-37.55L122.94-37.55ZM141.79-5L148.59-5Q150.44-5 151.19-6.05 151.94-7.1 151.94-8.4L151.94-8.4 151.94-31.3Q151.94-32.55 151.19-33.6 150.44-34.65 148.59-34.65L148.59-34.65 136.89-34.65 136.84-2.05Q136.84-0.95 135.99-0.3 135.14 0.35 133.89 0.35L133.89 0.35Q130.94 0.35 130.94-2.05L130.94-2.05 130.94-36.7Q130.94-38.5 131.86-39.1 132.79-39.7 134.09-39.7L134.09-39.7 149.84-39.7Q151.14-39.7 152.54-39.15 153.94-38.6 155.24-37.75L155.24-37.75 155.19-37.75Q156.49-36.8 157.19-35.27 157.89-33.75 157.89-31.75L157.89-31.75 157.89-8Q157.89-3.95 155.19-1.95L155.19-1.95Q153.89-1 152.51-0.48 151.14 0.05 149.84 0.05L149.84 0.05 141.44 0.05Q140.59 0.05 140.11-0.65 139.64-1.35 139.64-2.5L139.64-2.5Q139.64-5 141.79-5L141.79-5ZM203.03 0.05L183.58 0.05Q181.73 0.05 181.08-0.9 180.43-1.85 180.43-3L180.43-3 180.43-37.55Q180.43-39.95 183.33-39.95L183.33-39.95Q186.33-39.95 186.33-37.55L186.33-37.55 186.33-5 203.03-5Q204.83-5 204.83-2.55L204.83-2.55Q204.93 0.05 203.03 0.05L203.03 0.05ZM236.38-37.55L236.38-8Q236.38-3.95 233.68-1.95L233.68-1.95Q232.38-1 231.01-0.48 229.63 0.05 228.33 0.05L228.33 0.05 217.43 0.05Q216.13 0.05 214.76-0.48 213.38-1 212.08-1.95L212.08-1.95Q210.78-2.95 210.08-4.42 209.38-5.9 209.38-8L209.38-8 209.38-37.55Q209.38-39.95 212.33-39.95L212.33-39.95Q215.33-39.95 215.33-37.55L215.33-37.55 215.33-8.4Q215.33-7.1 216.08-6.05 216.83-5 218.68-5L218.68-5 227.08-5Q228.93-5 229.68-6.05 230.43-7.1 230.43-8.4L230.43-8.4 230.43-37.55Q230.43-39.95 233.38-39.95L233.38-39.95Q236.38-39.95 236.38-37.55L236.38-37.55ZM255.73-24L264.48-38.8Q264.88-39.35 265.3-39.7 265.73-40.05 266.43-40.05L266.43-40.05Q267.13-40.05 268.03-39.6L268.03-39.6Q269.93-38.7 269.93-37.3L269.93-37.3Q269.93-36.95 269.85-36.58 269.78-36.2 269.58-35.95L269.58-35.95 269.58-36 259.93-19.6 269.33-3.7Q269.58-3.1 269.58-2.5L269.58-2.5Q269.58-1.05 267.98-0.2L267.98-0.2Q266.78 0.4 265.98 0.4L265.98 0.4Q264.98 0.4 264.18-0.75L264.18-0.75 255.58-15.3Q254.63-13.65 253.53-11.8 252.43-9.95 251.3-8.03 250.18-6.1 249.05-4.25 247.93-2.4 246.98-0.75L246.98-0.75Q246.58-0.2 246.18 0.1 245.78 0.4 245.18 0.4L245.18 0.4Q244.33 0.4 243.23-0.2L243.23-0.2Q241.53-1.15 241.53-2.5L241.53-2.5Q241.53-2.85 241.63-3.13 241.73-3.4 241.88-3.75L241.88-3.75 241.88-3.7Q244.18-7.65 246.6-11.7 249.03-15.75 251.38-19.75L251.38-19.75 241.83-36Q241.68-36.3 241.53-36.7 241.38-37.1 241.38-37.35L241.38-37.35Q241.38-38.7 243.38-39.6L243.38-39.6Q244.18-40.05 244.98-40.05L244.98-40.05Q245.63-40.05 246.08-39.7 246.53-39.35 246.93-38.8L246.93-38.8 255.73-24ZM301.73-37.55L301.73-8Q301.73-3.95 299.03-1.95L299.03-1.95Q297.73-1 296.35-0.48 294.98 0.05 293.68 0.05L293.68 0.05 282.78 0.05Q281.48 0.05 280.1-0.48 278.73-1 277.43-1.95L277.43-1.95Q276.13-2.95 275.43-4.42 274.73-5.9 274.73-8L274.73-8 274.73-37.55Q274.73-39.95 277.68-39.95L277.68-39.95Q280.68-39.95 280.68-37.55L280.68-37.55 280.68-8.4Q280.68-7.1 281.43-6.05 282.18-5 284.03-5L284.03-5 292.43-5Q294.28-5 295.03-6.05 295.78-7.1 295.78-8.4L295.78-8.4 295.78-37.55Q295.78-39.95 298.73-39.95L298.73-39.95Q301.73-39.95 301.73-37.55L301.73-37.55ZM332.97-0.6L323.52-16.45 319.67-16.45Q318.82-16.45 318.35-17.13 317.87-17.8 317.87-18.95L317.87-18.95Q317.87-21.5 319.97-21.5L319.97-21.5 325.82-21.5Q327.67-21.5 328.42-22.55 329.17-23.6 329.17-24.85L329.17-24.85 329.17-31.3Q329.17-32.55 328.42-33.6 327.67-34.65 325.82-34.65L325.82-34.65 315.27-34.65 315.27-2.05Q315.27 0.35 312.32 0.35L312.32 0.35Q309.37 0.35 309.37-2.05L309.37-2.05 309.37-36.7Q309.37-38.5 310.3-39.1 311.22-39.7 312.52-39.7L312.52-39.7 327.07-39.7Q328.37-39.7 329.77-39.15 331.17-38.6 332.47-37.75L332.47-37.75 332.42-37.75Q333.72-36.8 334.42-35.27 335.12-33.75 335.12-31.75L335.12-31.75 335.12-24.45Q335.12-20.4 332.42-18.4L332.42-18.4Q331.87-18 331.25-17.65 330.62-17.3 329.97-16.95L329.97-16.95 337.97-3.75Q338.12-3.5 338.27-3.1 338.42-2.7 338.42-2.45L338.42-2.45Q338.42-1.25 336.72-0.15L336.72-0.15 336.72-0.2Q335.57 0.5 334.77 0.5L334.77 0.5Q333.62 0.5 332.92-0.65L332.92-0.65 332.97-0.6ZM357.67-15.15L357.67-2Q357.67 0.4 354.72 0.4L354.72 0.4Q351.77 0.4 351.77-2L351.77-2 351.77-15.3 340.57-36.6Q340.27-37.25 340.27-37.95L340.27-37.95Q340.27-39.4 341.97-40.1L341.97-40.1 341.92-40.1Q343.02-40.5 343.67-40.5L343.67-40.5Q344.97-40.5 345.67-39.2L345.67-39.2 354.77-22.1Q355.77-24 356.92-26.18 358.07-28.35 359.25-30.6 360.42-32.85 361.57-35.05 362.72-37.25 363.77-39.2L363.77-39.2Q364.17-39.8 364.65-40.15 365.12-40.5 365.82-40.5L365.82-40.5Q366.52-40.5 367.47-40.1L367.47-40.1 367.42-40.1Q369.17-39.35 369.17-37.9L369.17-37.9Q369.17-37.6 369.12-37.27 369.07-36.95 368.87-36.6L368.87-36.6Q368.42-35.7 367.75-34.4 367.07-33.1 365.85-30.78 364.62-28.45 362.67-24.73 360.72-21 357.67-15.15L357.67-15.15Z" opacity="1" transform="matrix(1,0,0,1,0,0)" fill="#ffffff" class="wordmark-text-0" data-fill-palette-color="primary" id="text-0"></path></svg></g></svg></g></svg></g></svg></g><g><svg viewBox="0 0 65.4657248778621 46.3442840785563" height="46.3442840785563" width="65.4657248778621"><g><svg xmlns="http://www.w3.org/2000/svg" xmlns:xlink="http://www.w3.org/1999/xlink" version="1.1" x="0" y="0" viewBox="6.99 19.552 86.02 60.895" enable-background="new 0 0 100 100" xml:space="preserve" height="46.3442840785563" width="65.4657248778621" class="icon-icon-0" data-fill-palette-color="accent" id="icon-0"><path d="M50 19.552C35.083 32.83 35.781 43.971 35.781 43.971c0 7.854 6.366 14.219 14.219 14.219 7.854 0 14.219-6.365 14.219-14.219C64.219 43.971 64.917 32.83 50 19.552zM61.571 43.566c-0.021 0.38-0.043 0.761-0.065 1.142l-0.044 0.57-0.113 0.562c-0.074 0.373-0.159 0.742-0.241 1.107-0.129 0.354-0.256 0.703-0.382 1.049-0.064 0.171-0.127 0.342-0.191 0.511-0.084 0.16-0.17 0.319-0.253 0.476-0.171 0.313-0.331 0.622-0.503 0.917-0.188 0.285-0.397 0.547-0.588 0.808-0.204 0.251-0.355 0.529-0.586 0.734-0.215 0.213-0.422 0.42-0.622 0.617-0.369 0.414-0.827 0.695-1.184 0.969-0.185 0.131-0.349 0.266-0.513 0.363-0.17 0.088-0.324 0.168-0.465 0.242-0.562 0.293-0.894 0.443-0.894 0.443s0.246-0.271 0.696-0.715c0.112-0.111 0.237-0.234 0.374-0.367 0.118-0.145 0.247-0.299 0.386-0.463 0.263-0.338 0.59-0.664 0.867-1.113 0.291-0.431 0.62-0.877 0.882-1.405 0.137-0.259 0.293-0.516 0.423-0.79 0.11-0.287 0.235-0.572 0.355-0.863 0.062-0.145 0.123-0.29 0.187-0.438 0.044-0.154 0.089-0.309 0.134-0.464 0.09-0.311 0.183-0.623 0.283-0.936 0.058-0.323 0.116-0.649 0.173-0.977l0.096-0.49 0.028-0.499 0.074-0.997c0.016-0.406 0.006-0.644-0.018-0.986-0.047-0.658-0.136-1.318-0.237-1.955-0.121-0.636-0.211-1.26-0.366-1.841-0.134-0.584-0.257-1.143-0.411-1.65-0.152-0.505-0.253-0.988-0.384-1.4-0.141-0.41-0.247-0.776-0.338-1.078-0.181-0.603-0.269-0.961-0.269-0.961s0.219 0.288 0.574 0.815c0.176 0.264 0.394 0.585 0.629 0.963 0.234 0.377 0.453 0.828 0.7 1.317 0.121 0.246 0.26 0.499 0.38 0.769 0.108 0.276 0.219 0.563 0.334 0.855 0.244 0.583 0.441 1.224 0.626 1.895 0.108 0.332 0.156 0.687 0.235 1.039 0.082 0.349 0.125 0.719 0.17 1.088C61.555 42.788 61.588 43.26 61.571 43.566z" fill="#ffffff" data-fill-palette-color="accent"></path><g fill="#ffffff" data-fill-palette-color="accent"><path d="M50 73.434c-9.283 0-18.68-2.057-18.68-5.99 0-3.932 9.396-5.988 18.68-5.988 9.282 0 18.679 2.057 18.679 5.988C68.679 71.377 59.282 73.434 50 73.434zM50 63.156c-10.363 0-16.979 2.539-16.979 4.287 0 1.75 6.615 4.289 16.979 4.289s16.979-2.539 16.979-4.289C66.979 65.695 60.363 63.156 50 63.156z" fill="#ffffff" data-fill-palette-color="accent"></path></g><path d="M58.607 58.41c-0.969 0.598-2.005 1.094-3.093 1.48 13.979 0.76 23.313 4.32 23.313 7.553 0 3.645-11.839 7.705-28.828 7.705s-28.828-4.061-28.828-7.705c0-3.232 9.334-6.793 23.314-7.553-1.088-0.387-2.123-0.883-3.092-1.48-11.711 1.018-21.924 4.113-21.924 9.033 0 6.111 15.729 9.406 30.529 9.406 14.799 0 30.53-3.295 30.53-9.406C80.53 62.523 70.316 59.428 58.607 58.41z" fill="#ffffff" data-fill-palette-color="accent"></path><path d="M62.564 55.016c-0.464 0.545-0.96 1.063-1.489 1.543 18.466 1.424 30.233 6.291 30.233 10.885 0 5.459-16.6 11.303-41.309 11.303S8.691 72.902 8.691 67.443c0-4.594 11.768-9.461 30.234-10.885-0.529-0.48-1.025-0.998-1.489-1.543C21.003 56.518 6.99 60.932 6.99 67.443c0 8.141 21.868 13.004 43.01 13.004s43.01-4.863 43.01-13.004C93.01 60.932 78.999 56.518 62.564 55.016z" fill="#ffffff" data-fill-palette-color="accent"></path></svg></g></svg></g></svg></g></svg></g></svg></g><defs></defs></svg><rect width="375.07953" height="106.5293834011633" fill="none" stroke="none" visibility="hidden"></rect></g></svg></g></svg>