<svg xmlns="http://www.w3.org/2000/svg" version="1.1" xmlns:xlink="http://www.w3.org/1999/xlink" xmlns:svgjs="http://svgjs.dev/svgjs" width="1000" height="370" viewBox="0 0 1000 370"><g transform="matrix(1,0,0,1,0.10666666666668334,-0.6319639928057654)"><svg viewBox="0 0 375 139" data-background-color="#ffffff" preserveAspectRatio="xMidYMid meet" height="370" width="1000" xmlns="http://www.w3.org/2000/svg" xmlns:xlink="http://www.w3.org/1999/xlink"><g id="tight-bounds" transform="matrix(1,0,0,1,-0.03976000000000113,0.2374135000000024)"><svg viewBox="0 0 375.07953 138.52517300000002" height="138.52517300000002" width="375.07953"><g><svg></svg></g><g><svg viewBox="0 0 375.07953 138.52517300000002" height="138.52517300000002" width="375.07953"><g transform="matrix(1,0,0,1,-10.22024,-56.51751999999999)"><path d="M10.22 190.682v-134.164h375.08v134.164h-22.769l0-2.187h20.581v-129.79h-370.704v129.79h29.076l0 2.187z" fill="#4b91f1" fill-rule="nonzero" stroke="none" stroke-width="1" stroke-linecap="butt" stroke-linejoin="miter" stroke-miterlimit="10" stroke-dasharray="" stroke-dashoffset="0" font-family="none" font-weight="none" font-size="none" text-anchor="none" style="mix-blend-mode: normal" data-fill-palette-color="tertiary"></path><g><path transform="translate(47.69239,194.84411) scale(0.28369,0.28369)" d="M10.5-10.25v0c0 2.3 1.66 3.45 4.98 3.45 3.313 0 4.97-1.033 4.97-3.1v0c0-1.1-0.567-2-1.7-2.7-1.133-0.7-2.507-1.283-4.12-1.75-1.62-0.467-3.237-1.01-4.85-1.63-1.62-0.613-2.997-1.58-4.13-2.9-1.133-1.313-1.7-2.953-1.7-4.92v0c0-8.367 5.383-12.55 16.15-12.55v0c3.933 0 6.91 0.74 8.93 2.22 2.013 1.487 3.02 3.547 3.02 6.18v0c0 0.967-0.123 1.89-0.37 2.77-0.253 0.887-0.513 1.513-0.78 1.88v0l-0.4 0.6h-8.85c0.733-0.767 1.1-1.733 1.1-2.9v0c0-2.167-1.417-3.25-4.25-3.25v0c-3.567 0-5.35 1.133-5.35 3.4v0c0 1.133 0.567 2.033 1.7 2.7 1.133 0.667 2.51 1.19 4.13 1.57 1.613 0.387 3.237 0.863 4.87 1.43 1.633 0.567 3.017 1.507 4.15 2.82 1.133 1.32 1.7 3.03 1.7 5.13v0c0 4.233-1.267 7.373-3.8 9.42-2.533 2.053-6.433 3.08-11.7 3.08-5.267 0-8.867-0.933-10.8-2.8v0c-1.433-1.4-2.15-3.333-2.15-5.8v0c0-0.933 0.1-1.95 0.3-3.05v0l0.15-0.8h9l-0.1 0.6c-0.067 0.333-0.1 0.633-0.1 0.9zM121.22-36l-1.4 7.8h-12.3l-4.95 28.2h-9.05l4.95-28.2h-12.35l1.4-7.8zM194.19 0h-9.5l0.3-7.85h-8.35l-2.45 7.85h-9.55l12.85-36h16.5zM185.79-27.25h-3.15l-3.95 12.7h6.55zM263.26-23.35h1.15l8.45-12.65h9l-15.4 22.15-2.45 13.85h-9.05l2.45-13.85-7.6-22.15h9.55zM399.2-36h14.5c3.8 0 6.5 0.833 8.1 2.5v0c1.2 1.267 1.8 2.867 1.8 4.8v0c0 0.667-0.067 1.367-0.2 2.1v0l-0.7 3.9c-0.4 2.167-1.093 3.917-2.08 5.25-0.98 1.333-2.07 2.283-3.27 2.85v0l4.55 14.6h-10.1l-4.2-13.45h-3.1l-2.05 13.45h-9.6zM410.55-28.2v0h-3.75l-1.3 8.7h3.5c1.767 0 3.033-0.427 3.8-1.28 0.767-0.847 1.15-1.97 1.15-3.37v0c0-2.7-1.133-4.05-3.4-4.05zM502.97-7.8l-1.4 7.8h-25.1l6.35-36h25.1l-1.4 7.8h-16.1l-1.15 6.75h13.3l-1.4 7.8h-13.3l-1 5.85zM584.14-21l-1.35 7.8h-13.3l-2.3 13.2h-9.05l6.35-36h25.1l-1.4 7.8h-16.1l-1.25 7.2zM645.41-36h14.5c3.8 0 6.5 0.833 8.1 2.5v0c1.2 1.267 1.8 2.867 1.8 4.8v0c0 0.667-0.067 1.367-0.2 2.1v0l-0.7 3.9c-0.4 2.167-1.093 3.917-2.08 5.25-0.98 1.333-2.07 2.283-3.27 2.85v0l4.55 14.6h-10.1l-4.2-13.45h-3.1l-2.05 13.45h-9.6zM656.76-28.2v0h-3.75l-1.3 8.7h3.5c1.767 0 3.033-0.427 3.8-1.28 0.767-0.847 1.15-1.97 1.15-3.37v0c0-2.7-1.133-4.05-3.4-4.05zM749.18-7.8l-1.4 7.8h-25.1l6.35-36h25.1l-1.4 7.8h-16.1l-1.15 6.75h13.3l-1.4 7.8h-13.3l-1 5.85zM813.9-10.25v0c0 2.3 1.657 3.45 4.97 3.45 3.32 0 4.98-1.033 4.98-3.1v0c0-1.1-0.567-2-1.7-2.7-1.133-0.7-2.51-1.283-4.13-1.75-1.613-0.467-3.23-1.01-4.85-1.63-1.613-0.613-2.987-1.58-4.12-2.9-1.133-1.313-1.7-2.953-1.7-4.92v0c0-8.367 5.383-12.55 16.15-12.55v0c3.933 0 6.907 0.74 8.92 2.22 2.02 1.487 3.03 3.547 3.03 6.18v0c0 0.967-0.127 1.89-0.38 2.77-0.247 0.887-0.503 1.513-0.77 1.88v0l-0.4 0.6h-8.85c0.733-0.767 1.1-1.733 1.1-2.9v0c0-2.167-1.417-3.25-4.25-3.25v0c-3.567 0-5.35 1.133-5.35 3.4v0c0 1.133 0.567 2.033 1.7 2.7 1.133 0.667 2.507 1.19 4.12 1.57 1.62 0.387 3.247 0.863 4.88 1.43 1.633 0.567 3.017 1.507 4.15 2.82 1.133 1.32 1.7 3.03 1.7 5.13v0c0 4.233-1.267 7.373-3.8 9.42-2.533 2.053-6.433 3.08-11.7 3.08-5.267 0-8.867-0.933-10.8-2.8v0c-1.433-1.4-2.15-3.333-2.15-5.8v0c0-0.933 0.1-1.95 0.3-3.05v0l0.15-0.8h9l-0.1 0.6c-0.067 0.333-0.1 0.633-0.1 0.9zM912.67-36h9l-6.3 36h-9.05l2.3-13h-9.75l-2.25 13h-9.05l6.35-36h9l-2.7 15.2h9.75zM999.74-7.8l-1.4 7.8h-25.1l6.35-36h25.1l-1.4 7.8h-16.1l-1.15 6.75h13.3l-1.4 7.8h-13.3l-1 5.85zM1061.26-36h14c4.367 0 7.483 1.1 9.35 3.3v0c1.367 1.667 2.05 3.75 2.05 6.25v0c0 0.9-0.083 1.85-0.25 2.85v0l-1.95 11.15c-0.667 3.767-2.3 6.783-4.9 9.05-2.6 2.267-5.967 3.4-10.1 3.4v0h-14.55zM1072.11-28.2v0h-3.25l-3.55 20.4h4.75c1.567 0 2.79-0.427 3.67-1.28 0.887-0.847 1.497-2.237 1.83-4.17v0l1.45-8.2c0.133-0.733 0.2-1.4 0.2-2v0c0-3.167-1.7-4.75-5.1-4.75z" fill="#8cbdff" fill-rule="nonzero" stroke="none" stroke-width="1" stroke-linecap="butt" stroke-linejoin="miter" stroke-miterlimit="10" stroke-dasharray="" stroke-dashoffset="0" font-family="none" font-weight="none" font-size="none" text-anchor="none" style="mix-blend-mode: normal" data-fill-palette-color="secondary"></path></g></g><g transform="matrix(1,0,0,1,29.33176499999999,45.4483566326499)"><svg viewBox="0 0 316.416 47.62845973470023" height="47.62845973470023" width="316.416"><g><svg viewBox="0 0 411.3190761436713 61.91372767566415" height="47.62845973470023" width="316.416"><g transform="matrix(1,0,0,1,94.90307614367129,15.190699418258822)"><svg viewBox="0 0 316.416 31.532328839146505" height="31.532328839146505" width="316.416"><g id="textblocktransform"><svg viewBox="0 0 316.416 31.532328839146505" height="31.532328839146505" width="316.416" id="textblock"><g><svg viewBox="0 0 316.416 31.532328839146505" height="31.532328839146505" width="316.416"><g transform="matrix(1,0,0,1,0,0)"><svg width="316.416" viewBox="0.78 -32.28 366.958301525116 36.58" height="31.532328839146505" data-palette-color="#4b91f1"><g transform="matrix(1,0,0,1,0,0)"><g><svg width="15.818867683410643" viewBox="1.78 -36.36 74.21 36.36" height="7.75048828125" data-palette-color="#4b91f1" id="scriptelement" x="351.9194338417053" y="-7.75048828125"><path d="M12.91-30.02L1.78-30.02 1.78-36.36 31.64-36.36 31.64-30.02 20.51-30.02 20.51 0 12.91 0 12.91-30.02ZM36.57 0L36.57-36.36 46.06-36.36 56.07-11.93 56.5-11.93 66.51-36.36 75.99-36.36 75.99 0 68.53 0 68.53-23.67 68.23-23.67 58.82-0.18 53.74-0.18 44.33-23.76 44.03-23.76 44.03 0 36.57 0Z" opacity="1" transform="matrix(1,0,0,1,0,0)" fill="#4b91f1" class="undefined-123" data-fill-palette-color="primary" id="lv-123"></path></svg></g></g><path d="M24.19 0.02L6.45 0.02Q3.74 0.02 2.26-1.42 0.78-2.86 0.78-5.76L0.78-5.76 0.78-29.64Q2.08-30.74 3.94-31.34 5.81-31.93 7.81-31.93L7.81-31.93Q10.77-31.93 12.82-30.47L12.82-30.47Q15.04-28.81 15.04-25.88L15.04-25.88 15.04-12.52Q13.67-12.4 12.35-11.76 11.04-11.11 11.04-10.42L11.04-10.42Q11.04-10.01 11.5-9.72L11.5-9.72Q13.92-11.74 18.68-11.74L18.68-11.74 24.46-11.74Q26.07-8.91 26.07-5.96L26.07-5.96Q26.07-4.49 25.56-2.71 25.05-0.93 24.19 0.02L24.19 0.02ZM41.35-27.08L41.35-27.08 41.35-1.86Q40.23-0.88 38.35-0.22 36.47 0.44 33.79 0.44 31.1 0.44 29.22-0.76L29.22-0.76Q27.1-2.05 27.1-4.42L27.1-4.42 27.1-29.64Q28.22-30.62 30.1-31.27 31.98-31.93 34.64-31.93 37.3-31.93 39.26-30.76L39.26-30.76Q41.35-29.42 41.35-27.08ZM56.12-11.55L56.12-11.55Q56.12-11.13 56.51-10.99L56.51-10.99Q57.1-11.65 58.17-12.15 59.25-12.65 60.59-12.65L60.59-12.65Q63.15-12.65 64.84-11.13L64.84-11.13Q64.84-11.13 65.01-10.99L65.01-10.99Q65.33-11.16 65.33-11.6L65.33-11.6Q65.33-12.35 64.13-13.04L64.13-13.04Q62.74-13.79 60.57-13.79L60.57-13.79Q59.98-13.79 59.49-13.7L59.49-13.7 59.49-20.07Q59.49-21.12 58.77-21.12 58.05-21.12 58.05-20.04L58.05-20.04 58.05-13.35Q56.12-12.57 56.12-11.55ZM58.12 0.02L58.12 0.02Q53.9 0.02 50.46-1.57 47.02-3.17 44.97-6.52L44.97-6.52Q42.67-10.3 42.67-15.94 42.67-21.58 45.01-25.44L45.01-25.44Q47.11-28.91 50.72-30.59 54.32-32.28 58.47-32.28L58.47-32.28Q66.04-32.28 70.34-27.84 74.65-23.41 74.65-16.26L74.65-16.26Q74.65-11.89 72.8-8.59L72.8-8.59 76.34-8.59Q77.22-5.96 77.22-3.61L77.22-3.61Q77.22-0.05 75.24 2.12 73.26 4.3 69.72 4.3 66.18 4.3 63.85 1.97 61.52-0.37 60.05-5.4L60.05-5.4 59.93-5.4Q59.15-5.4 59.15-4.61L59.15-4.61Q59.15-3.15 60.79-0.12L60.79-0.12Q59.52 0.02 58.12 0.02ZM98.01-31.93L98.01-31.93Q100.94-31.93 103.09-30.35 105.24-28.76 105.24-25.83L105.24-25.83 105.24-12.26Q105.24-6.05 101.46-2.7 97.67 0.66 91 0.66 84.32 0.66 80.61-2.64L80.61-2.64Q76.82-5.93 76.82-12.26L76.82-12.26 76.82-29.66Q79.7-31.96 83.49-31.96L83.49-31.96Q86.66-31.96 88.52-30.29 90.37-28.61 90.37-25.22L90.37-25.22 90.37-10.99Q90.64-10.79 91-10.79 91.35-10.79 91.51-10.97 91.67-11.16 91.67-11.67L91.67-11.67 91.67-25.24Q91.67-26.78 91.52-27.69 91.37-28.59 90.93-29.49L90.93-29.49Q93.86-31.93 98.01-31.93ZM121.3-27.08L121.3-27.08 121.3-1.86Q120.18-0.88 118.3-0.22 116.42 0.44 113.74 0.44 111.05 0.44 109.17-0.76L109.17-0.76Q107.05-2.05 107.05-4.42L107.05-4.42 107.05-29.64Q108.17-30.62 110.05-31.27 111.93-31.93 114.59-31.93 117.25-31.93 119.2-30.76L119.2-30.76Q121.3-29.42 121.3-27.08ZM137.88-14.72L137.88-16.85Q137.88-19.29 137.66-20.2 137.44-21.12 136.85-21.12L136.85-21.12Q136.49-21.12 136.19-20.87L136.19-20.87Q136.24-20.43 136.34-19.7 136.44-18.97 136.44-16.58L136.44-16.58 136.44-14.99Q136.44-13.33 136.36-12.57 136.29-11.82 136.24-11.28L136.24-11.28Q136.22-10.99 136.19-10.69L136.19-10.69Q136.49-10.45 136.85-10.45L136.85-10.45Q137.44-10.45 137.66-11.36 137.88-12.28 137.88-14.72L137.88-14.72ZM134.95 0.02L128.77 0.02Q126.06 0.02 124.58-1.42 123.11-2.86 123.11-5.76L123.11-5.76 123.11-27.73Q123.11-29.59 126.83-30.87 130.55-32.15 135.14-32.15L135.14-32.15Q143.22-32.15 147.77-28.25L147.77-28.25Q152.65-24.05 152.65-15.72L152.65-15.72Q152.65-8.23 147.92-4.1 143.2 0.02 134.95 0.02L134.95 0.02ZM189.09 0.02L171.34 0.02Q168.63 0.02 167.16-1.42 165.68-2.86 165.68-5.76L165.68-5.76 165.68-29.64Q166.97-30.74 168.84-31.34 170.71-31.93 172.71-31.93L172.71-31.93Q175.67-31.93 177.72-30.47L177.72-30.47Q179.94-28.81 179.94-25.88L179.94-25.88 179.94-12.52Q178.57-12.4 177.25-11.76 175.93-11.11 175.93-10.42L175.93-10.42Q175.93-10.01 176.4-9.72L176.4-9.72Q178.82-11.74 183.58-11.74L183.58-11.74 189.36-11.74Q190.97-8.91 190.97-5.96L190.97-5.96Q190.97-4.49 190.46-2.71 189.95-0.93 189.09 0.02L189.09 0.02ZM212.21-31.93L212.21-31.93Q215.14-31.93 217.29-30.35 219.44-28.76 219.44-25.83L219.44-25.83 219.44-12.26Q219.44-6.05 215.65-2.7 211.87 0.66 205.19 0.66 198.52 0.66 194.8-2.64L194.8-2.64Q191.02-5.93 191.02-12.26L191.02-12.26 191.02-29.66Q193.9-31.96 197.69-31.96L197.69-31.96Q200.86-31.96 202.71-30.29 204.57-28.61 204.57-25.22L204.57-25.22 204.57-10.99Q204.84-10.79 205.19-10.79 205.55-10.79 205.71-10.97 205.86-11.16 205.86-11.67L205.86-11.67 205.86-25.24Q205.86-26.78 205.72-27.69 205.57-28.59 205.13-29.49L205.13-29.49Q208.06-31.93 212.21-31.93ZM236.13-5.74L236.13-5.74 233.3-0.22Q231.47 0.46 229.32 0.46L229.32 0.46Q225.54 0.46 223.12-1.68 220.71-3.83 220.71-7.47L220.71-7.47Q220.71-10.69 222.88-13.21 225.05-15.72 229.03-17.43L229.03-17.43Q228.74-18.24 228.03-18.24 227.32-18.24 225.44-16.94L225.44-16.94Q223.61-17.9 222.23-20.09 220.85-22.29 220.85-25.17 220.85-28.05 222.98-30.1 225.1-32.15 228.83-32.15L228.83-32.15Q232.06-32.15 234.13-30.96L234.13-30.96 236.72-25.81 238.82-31.08Q240.9-32.01 243.46-32.01L243.46-32.01Q247.1-32.01 249.37-30L249.37-30Q251.64-27.95 251.64-24.27L251.64-24.27Q251.64-21.22 249.45-18.54 247.27-15.87 243.85-14.31L243.85-14.31Q244.12-13.6 244.81-13.6 245.51-13.6 247.07-14.67L247.07-14.67 252.1-8.37Q252.1-4.44 250.15-2.1L250.15-2.1Q248 0.49 244.22 0.49L244.22 0.49Q238.45 0.49 236.13-5.74ZM274.32-31.93L274.32-31.93Q277.25-31.93 279.39-30.35 281.54-28.76 281.54-25.83L281.54-25.83 281.54-12.26Q281.54-6.05 277.76-2.7 273.97 0.66 267.3 0.66 260.62 0.66 256.91-2.64L256.91-2.64Q253.12-5.93 253.12-12.26L253.12-12.26 253.12-29.66Q256.01-31.96 259.79-31.96L259.79-31.96Q262.96-31.96 264.82-30.29 266.67-28.61 266.67-25.22L266.67-25.22 266.67-10.99Q266.94-10.79 267.3-10.79 267.65-10.79 267.81-10.97 267.97-11.16 267.97-11.67L267.97-11.67 267.97-25.24Q267.97-26.78 267.82-27.69 267.68-28.59 267.24-29.49L267.24-29.49Q270.17-31.93 274.32-31.93ZM296.99-20.85L296.99-17.36Q297.09-17.29 297.56-17.29 298.02-17.29 298.26-17.65 298.51-18.02 298.51-18.85L298.51-18.85 298.51-19.73Q298.51-20.61 298.3-20.98 298.09-21.36 297.62-21.36 297.14-21.36 296.97-21.26L296.97-21.26Q296.99-21.14 296.99-20.85L296.99-20.85ZM309.59-11.79L309.59-11.79 313.82-7.47Q313.38-3.66 311.41-1.61 309.45 0.44 305.98 0.44L305.98 0.44Q303.37 0.44 301.44-0.81L301.44-0.81Q298.97-2.37 297.75-5.79L297.75-5.79 296.87-8.18Q295.85-8.2 294.28-8.45L294.28-8.45Q294.09-8.25 294.09-7.91L294.09-7.91Q294.09-7.25 296.07-7.13L296.07-7.13 297.46-3.61 297.46-1.54Q294.65 0.44 290.26 0.44L290.26 0.44Q287.11 0.44 285.23-0.85 283.35-2.15 283.35-4.61L283.35-4.61 283.35-27.81Q283.35-28.88 285.32-29.9 287.3-30.91 290.5-31.53 293.7-32.15 296.9-32.15L296.9-32.15Q304.22-32.15 308.35-29.15L308.35-29.15Q312.69-26 312.69-20.29L312.69-20.29Q312.69-17.02 310.85-14.69 309.01-12.35 306.2-11.45L306.2-11.45Q306.2-10.67 307.14-10.67 308.08-10.67 309.59-11.79ZM323.87-7.42L323.87-7.42Q324.55-7.42 324.55-8.18L324.55-8.18Q319.16-11.77 316.32-16.99 313.47-22.22 313.13-28.52L313.13-28.52Q314.23-30.15 316.41-31.03 318.6-31.91 320.92-31.91L320.92-31.91Q323.97-31.91 326.17-30.71L326.17-30.71Q327.53-27.03 328.41-23.68L328.41-23.68Q327.22-18.41 327.22-18.41L327.22-18.41Q327.12-18.04 327.12-17.72L327.12-17.72Q327.12-16.89 328-16.89L328-16.89Q328.29-17.82 329.36-22.51L329.36-22.51Q329.63-23.71 330.08-25.84 330.54-27.98 331.24-30.88L331.24-30.88Q333.49-31.96 336.37-31.96L336.37-31.96Q339.86-31.96 341.94-30.26 344.01-28.56 344.01-25.37L344.01-25.37Q344.01-20.68 341.38-16.24L341.38-16.24Q339.3-12.72 335.88-9.67L335.88-9.67 335.88-1.61Q333.86-0.37 332.25 0.04 330.63 0.44 328.85 0.44L328.85 0.44Q325.48 0.44 323.55-0.83 321.63-2.1 321.63-4.61L321.63-4.61 321.63-8.91Q322.06-8.47 322.75-7.95 323.43-7.42 323.87-7.42Z" opacity="1" transform="matrix(1,0,0,1,0,0)" fill="#4b91f1" class="wordmark-text-0" data-fill-palette-color="primary" id="text-0"></path></svg></g></svg></g></svg></g></svg></g><g><svg viewBox="0 0 87.45905008064094 61.91372767566415" height="61.91372767566415" width="87.45905008064094"><g><svg xmlns="http://www.w3.org/2000/svg" xmlns:xlink="http://www.w3.org/1999/xlink" version="1.1" x="0" y="0" viewBox="6.99 19.552 86.02 60.895" enable-background="new 0 0 100 100" xml:space="preserve" height="61.91372767566415" width="87.45905008064094" class="icon-icon-0" data-fill-palette-color="accent" id="icon-0"><path d="M50 19.552C35.083 32.83 35.781 43.971 35.781 43.971c0 7.854 6.366 14.219 14.219 14.219 7.854 0 14.219-6.365 14.219-14.219C64.219 43.971 64.917 32.83 50 19.552zM61.571 43.566c-0.021 0.38-0.043 0.761-0.065 1.142l-0.044 0.57-0.113 0.562c-0.074 0.373-0.159 0.742-0.241 1.107-0.129 0.354-0.256 0.703-0.382 1.049-0.064 0.171-0.127 0.342-0.191 0.511-0.084 0.16-0.17 0.319-0.253 0.476-0.171 0.313-0.331 0.622-0.503 0.917-0.188 0.285-0.397 0.547-0.588 0.808-0.204 0.251-0.355 0.529-0.586 0.734-0.215 0.213-0.422 0.42-0.622 0.617-0.369 0.414-0.827 0.695-1.184 0.969-0.185 0.131-0.349 0.266-0.513 0.363-0.17 0.088-0.324 0.168-0.465 0.242-0.562 0.293-0.894 0.443-0.894 0.443s0.246-0.271 0.696-0.715c0.112-0.111 0.237-0.234 0.374-0.367 0.118-0.145 0.247-0.299 0.386-0.463 0.263-0.338 0.59-0.664 0.867-1.113 0.291-0.431 0.62-0.877 0.882-1.405 0.137-0.259 0.293-0.516 0.423-0.79 0.11-0.287 0.235-0.572 0.355-0.863 0.062-0.145 0.123-0.29 0.187-0.438 0.044-0.154 0.089-0.309 0.134-0.464 0.09-0.311 0.183-0.623 0.283-0.936 0.058-0.323 0.116-0.649 0.173-0.977l0.096-0.49 0.028-0.499 0.074-0.997c0.016-0.406 0.006-0.644-0.018-0.986-0.047-0.658-0.136-1.318-0.237-1.955-0.121-0.636-0.211-1.26-0.366-1.841-0.134-0.584-0.257-1.143-0.411-1.65-0.152-0.505-0.253-0.988-0.384-1.4-0.141-0.41-0.247-0.776-0.338-1.078-0.181-0.603-0.269-0.961-0.269-0.961s0.219 0.288 0.574 0.815c0.176 0.264 0.394 0.585 0.629 0.963 0.234 0.377 0.453 0.828 0.7 1.317 0.121 0.246 0.26 0.499 0.38 0.769 0.108 0.276 0.219 0.563 0.334 0.855 0.244 0.583 0.441 1.224 0.626 1.895 0.108 0.332 0.156 0.687 0.235 1.039 0.082 0.349 0.125 0.719 0.17 1.088C61.555 42.788 61.588 43.26 61.571 43.566z" fill="#4b91f1" data-fill-palette-color="accent"></path><g fill="#4b91f1" data-fill-palette-color="accent"><path d="M50 73.434c-9.283 0-18.68-2.057-18.68-5.99 0-3.932 9.396-5.988 18.68-5.988 9.282 0 18.679 2.057 18.679 5.988C68.679 71.377 59.282 73.434 50 73.434zM50 63.156c-10.363 0-16.979 2.539-16.979 4.287 0 1.75 6.615 4.289 16.979 4.289s16.979-2.539 16.979-4.289C66.979 65.695 60.363 63.156 50 63.156z" fill="#4b91f1" data-fill-palette-color="accent"></path></g><path d="M58.607 58.41c-0.969 0.598-2.005 1.094-3.093 1.48 13.979 0.76 23.313 4.32 23.313 7.553 0 3.645-11.839 7.705-28.828 7.705s-28.828-4.061-28.828-7.705c0-3.232 9.334-6.793 23.314-7.553-1.088-0.387-2.123-0.883-3.092-1.48-11.711 1.018-21.924 4.113-21.924 9.033 0 6.111 15.729 9.406 30.529 9.406 14.799 0 30.53-3.295 30.53-9.406C80.53 62.523 70.316 59.428 58.607 58.41z" fill="#4b91f1" data-fill-palette-color="accent"></path><path d="M62.564 55.016c-0.464 0.545-0.96 1.063-1.489 1.543 18.466 1.424 30.233 6.291 30.233 10.885 0 5.459-16.6 11.303-41.309 11.303S8.691 72.902 8.691 67.443c0-4.594 11.768-9.461 30.234-10.885-0.529-0.48-1.025-0.998-1.489-1.543C21.003 56.518 6.99 60.932 6.99 67.443c0 8.141 21.868 13.004 43.01 13.004s43.01-4.863 43.01-13.004C93.01 60.932 78.999 56.518 62.564 55.016z" fill="#4b91f1" data-fill-palette-color="accent"></path></svg></g></svg></g></svg></g></svg></g></svg></g><defs></defs></svg><rect width="375.07953" height="138.52517300000002" fill="none" stroke="none" visibility="hidden"></rect></g></svg></g></svg>