<svg xmlns="http://www.w3.org/2000/svg" version="1.1" xmlns:xlink="http://www.w3.org/1999/xlink" xmlns:svgjs="http://svgjs.dev/svgjs" width="1000" height="1000" viewBox="0 0 1000 1000"><rect width="1000" height="1000" fill="#ffffff"></rect><g transform="matrix(0.7,0,0,0.7,149.57575757575756,355.31965857138823)"><svg viewBox="0 0 396 164" data-background-color="#ffffff" preserveAspectRatio="xMidYMid meet" height="414" width="1000" xmlns="http://www.w3.org/2000/svg" xmlns:xlink="http://www.w3.org/1999/xlink"><g id="tight-bounds" transform="matrix(1,0,0,1,0.2400000000000091,-0.12430643791466878)"><svg viewBox="0 0 395.52 164.24861287582934" height="164.24861287582934" width="395.52"><g><svg viewBox="0 0 395.52 164.24861287582934" height="164.24861287582934" width="395.52"><g><svg viewBox="0 0 621.5461908732934 258.11109346984705" height="164.24861287582934" width="395.52"><g transform="matrix(1,0,0,1,226.02619087329342,38.6129120043846)"><svg viewBox="0 0 395.52 180.88526946107785" height="180.88526946107785" width="395.52"><g id="textblocktransform"><svg viewBox="0 0 395.52 180.88526946107785" height="180.88526946107785" width="395.52" id="textblock"><g><svg viewBox="0 0 395.52 180.88526946107785" height="180.88526946107785" width="395.52"><g transform="matrix(1,0,0,1,0,0)"><svg width="395.52" viewBox="3.5 -30.15 66.8 30.549999999999997" height="180.88526946107785" data-palette-color="#3f536f"><path d="M19.05-1.95L19.05-21.75Q19.05-22.4 18.85-23.03 18.65-23.65 18.35-24.2L18.35-24.2Q17.7-25.4 15.65-25.4L15.65-25.4 12.45-25.4Q10.4-25.4 9.7-24.2L9.7-24.2Q9.1-23.05 9.1-21.75L9.1-21.75 9.1-1.95Q9.1 0.4 6.35 0.4L6.35 0.4Q3.5 0.4 3.5-1.95L3.5-1.95 3.5-22.2Q3.5-26.3 6.2-28.2L6.2-28.2Q8.95-30.1 11.55-30.1L11.55-30.1 16.6-30.1Q17.75-30.1 19.15-29.65 20.55-29.2 21.85-28.25L21.85-28.25Q23.1-29.2 24.48-29.65 25.85-30.1 27.1-30.1L27.1-30.1 32.1-30.1Q34.75-30.1 37.4-28.2L37.4-28.2Q40.15-26.35 40.15-22.2L40.15-22.2 40.15-1.95Q40.15 0.4 37.35 0.4L37.35 0.4Q34.55 0.4 34.55-1.95L34.55-1.95 34.55-21.75Q34.55-22.4 34.4-23.05 34.25-23.7 33.85-24.25L33.85-24.25 33.9-24.2Q33.5-24.85 32.9-25.13 32.3-25.4 31.15-25.4L31.15-25.4 28-25.4Q25.9-25.4 25.25-24.2L25.25-24.2Q24.6-23.1 24.6-21.75L24.6-21.75 24.6-1.95Q24.6 0.4 21.85 0.4L21.85 0.4Q19.05 0.4 19.05-1.95L19.05-1.95ZM70.3-10.3L70.3-7.95Q70.3-3.85 67.6-1.9L67.6-1.9Q64.95 0 62.3 0L62.3 0 53.9 0Q51.25 0 48.75-1.9L48.75-1.9Q47.55-2.9 46.9-4.42 46.25-5.95 46.25-7.95L46.25-7.95 46.25-22.2Q46.25-26.25 48.75-28.2L48.75-28.2Q50-29.1 51.32-29.63 52.65-30.15 53.9-30.15L53.9-30.15 62.3-30.15Q63.5-30.15 64.95-29.68 66.4-29.2 67.65-28.4L67.65-28.4Q68.85-27.55 69.57-26.05 70.3-24.55 70.3-22.5L70.3-22.5 70.3-20Q70.3-17.6 67.55-17.6L67.55-17.6Q64.8-17.6 64.8-20L64.8-20 64.8-22.15Q64.8-23.4 64.02-24.43 63.25-25.45 61.4-25.45L61.4-25.45 55.15-25.45Q53.3-25.45 52.52-24.43 51.75-23.4 51.75-22.15L51.75-22.15 51.75-8Q51.75-6.8 52.52-5.75 53.3-4.7 55.15-4.7L55.15-4.7 61.4-4.7Q63.25-4.7 64.02-5.75 64.8-6.8 64.8-8L64.8-8 64.8-10.3Q64.8-12.65 67.55-12.65L67.55-12.65Q70.3-12.65 70.3-10.3L70.3-10.3Z" opacity="1" transform="matrix(1,0,0,1,0,0)" fill="#3f536f" class="wordmark-text-0" data-fill-palette-color="primary" id="text-0"></path></svg></g></svg></g></svg></g></svg></g><g><svg viewBox="0 0 183.32352 258.11109346984705" height="258.11109346984705" width="183.32352"><g><svg xmlns="http://www.w3.org/2000/svg" xmlns:xlink="http://www.w3.org/1999/xlink" version="1.1" x="0" y="0" viewBox="17.000381386868586 2 67.89149112848752 95.58810027470743" enable-background="new 0 0 100 100" xml:space="preserve" height="258.11109346984705" width="183.32352" class="icon-icon-0" data-fill-palette-color="accent" id="icon-0"><path d="M79.949 44.174c0.386-0.308 0.767-0.673 1.143-1.124 0.527-0.632 2.127-2.556 1.321-4.34-0.527-1.173-1.432-1.362-2.088-1.501-0.268-0.062-0.521-0.115-0.761-0.23-0.638-0.295-1.036-0.685-1.22-1.19-0.455-1.272 0.468-3.237 0.962-4.291 0.371-0.796 1.035-1.706 1.735-2.667 1.764-2.424 3.76-5.168 2.775-8.073-0.41-1.231-1.272-2.117-2.422-2.499-1.204-0.402-2.59-0.189-3.702 0.575-2.771 1.907-3.93 5.607-4.951 8.873-0.447 1.419-0.868 2.765-1.387 3.88l-0.207 0.455c-0.332 0.726-0.753 1.645-1.249 2.572-1.741-1.099-3.507-1.977-5.236-2.601l2.523-6.551-0.412-0.903 1.741-1.825-1.497-1.214L68.366 20l-0.946-0.673 0.767-0.754-15.5-15.958C52.302 2.218 51.781 2 51.228 2c-0.533 0-1.036 0.201-1.421 0.575-0.388 0.381-0.607 0.886-0.613 1.432-0.01 0.541 0.193 1.058 0.574 1.448l12.678 13.049-1.333 1.308 1.2 0.862-1.177 1.325 1.39 1.124-0.593 0.623 0.839 1.846-2.09 5.439c-0.576-0.07-1.14-0.107-1.686-0.107-2.504 0-4.625 0.771-6.131 2.228-1.563 1.518-2.377 3.659-2.42 6.227l-31.831 37.1c0 0-5.505 6.313 3.821 15.641 8.852 8.853 15.506 4.295 15.506 4.295l37.885-30.516c0.173 0.004 0.341 0.008 0.509 0.008h0.002c2.504 0 4.621-0.771 6.127-2.228 2.404-2.33 3.048-6.128 1.819-10.694C83.499 50.065 82 47.05 79.949 44.174zM78.066 64.094c-0.541 0.102-1.114 0.156-1.729 0.156h-0.002c-4.916 0-11.133-3.261-16.224-8.512-3.702-3.819-6.356-8.196-7.466-12.327-0.657-2.441-0.722-4.606-0.218-6.35 0.314-1.079 0.845-1.998 1.594-2.719 1.204-1.169 2.88-1.76 4.974-1.76 0.353 0 0.706 0.016 1.071 0.049l-0.32 0.833c-0.521-0.102-1.001-0.045-1.44 0.102-1.411 0.181-2.613 0.709-3.509 1.579-0.17 0.164-0.326 0.349-0.472 0.533-1.508 1.907-1.737 4.841-0.622 8.368 1.161 3.68 3.657 7.609 7.029 11.088 4.902 5.058 10.741 8.2 15.235 8.2 1.54 0 2.878-0.39 3.924-1.128 0.226-0.16 0.443-0.328 0.64-0.521 1.932-1.871 2.32-5.033 1.097-8.901-0.761-2.404-2.094-4.923-3.868-7.347 0.263-0.115 0.529-0.234 0.79-0.369 1.965 2.732 3.392 5.595 4.133 8.348 1.064 3.959 0.58 7.183-1.372 9.07C80.459 63.315 79.37 63.848 78.066 64.094zM62.34 31.326l2.223-5.784-0.662-1.464 1.058-1.111-1.432-1.165 1.249-1.399-1.099-0.788 1.103-1.083L50.953 4.301c-0.095-0.098-0.107-0.213-0.107-0.271 0.002-0.061 0.019-0.172 0.117-0.266 0.096-0.095 0.207-0.107 0.265-0.107S51.4 3.67 51.496 3.772l14.353 14.772-0.997 0.98 1.05 0.751-1.28 1.44 1.453 1.177-1.272 1.337 0.583 1.288-2.304 5.997-0.301 0.775-0.295 0.771-0.308 0.8-0.299 0.783-0.076 0.193-0.226 0.591-0.15 0.377-0.423 1.116-0.268 0.697-2.406 6.252-1.296 3.372c-0.154-0.283-0.305-0.591-0.457-0.927l1.204-3.134 2.228-5.784 0.552-1.444 0.263-0.677 0.09-0.238 0.211-0.55 0.113-0.291 0.191-0.492 0.314-0.82 0.297-0.775L62.34 31.326zM71.283 35.543c0.537-0.993 0.988-1.977 1.368-2.806l0.207-0.451c0.564-1.214 1.001-2.609 1.461-4.085 0.988-3.15 2.008-6.416 4.309-7.999 0.687-0.468 1.524-0.607 2.244-0.369 0.453 0.152 1.064 0.529 1.374 1.456 0.709 2.092-0.943 4.369-2.548 6.568-0.746 1.03-1.452 2.002-1.893 2.937-0.826 1.764-1.655 3.795-1.019 5.559 0.334 0.927 1.033 1.645 2.076 2.129 0.408 0.193 0.8 0.279 1.114 0.344 0.589 0.123 0.751 0.173 0.925 0.566 0.142 0.316 0.191 1.071-1.081 2.601-0.285 0.336-0.572 0.615-0.867 0.853-0.223 0.18-0.449 0.344-0.679 0.48-0.24 0.144-0.49 0.275-0.743 0.398-0.265 0.123-0.537 0.238-0.818 0.357-0.1 0.045-0.201 0.086-0.304 0.127-0.162 0.066-0.33 0.131-0.492 0.205-0.24 0.099-0.482 0.205-0.728 0.32-0.018 0.008-0.039 0.016-0.058 0.025-0.344 0.164-0.689 0.344-1.05 0.558-1.479 0.902-2.467 2.441-2.521 3.93-0.039 1.124 0.468 2.112 1.426 2.79 0.423 0.295 0.859 0.549 1.28 0.788 1.395 0.792 2.188 1.313 2.246 2.744 0.076 1.92-1.165 2.925-2.601 4.09-0.521 0.423-1.056 0.866-1.54 1.358-0.072 0.074-0.146 0.152-0.218 0.23l-0.336-0.423c-3.222-1.21-6.789-3.635-9.892-6.839-1.495-1.538-2.804-3.171-3.885-4.82 0.053-0.09 0.105-0.189 0.143-0.287l1.344-3.503 2.404-6.243c0.595 0.985 1.573 1.78 3.456 1.657 0.946-0.057 1.797-0.426 2.56-0.984 0.332-0.246 0.654-0.533 0.954-0.845 0.195-0.197 0.379-0.402 0.56-0.623 0.176-0.213 0.344-0.431 0.504-0.657 0.166-0.23 0.329-0.463 0.484-0.706 0.147-0.229 0.291-0.468 0.428-0.705C71.016 36.027 71.154 35.781 71.283 35.543zM62.771 36.938l0.402-1.046c1.391 0.488 2.851 1.21 4.316 2.129-0.583 0.55-1.21 0.94-1.883 1.067-0.107 0.025-0.213 0.041-0.324 0.05-0.938 0.057-1.452-0.176-1.828-0.697C63.191 38.078 62.995 37.578 62.771 36.938zM55.282 43.55c-0.509-1.608-0.706-3.044-0.599-4.258l-0.086-0.115c0.035-0.016 0.07-0.037 0.107-0.057 0.634-0.369 1.11-0.993 1.54-1.559 0.17-0.226 0.332-0.443 0.476-0.595 0.086-0.095 0.176-0.193 0.269-0.299 0.045-0.049 0.086-0.095 0.131-0.144 0.576-0.632 1.079-1.124 1.577-1.337 0.142-0.061 0.283-0.102 0.427-0.11l-0.033 0.086-0.677 1.752-1.827 4.766-1.03 2.667C55.461 44.08 55.366 43.813 55.282 43.55zM77.496 53.314c-0.611-0.911-1.547-1.444-2.414-1.932-0.386-0.221-0.786-0.447-1.143-0.701-0.504-0.353-0.74-0.808-0.724-1.378 0.031-0.919 0.744-1.973 1.727-2.568 0.228-0.139 0.457-0.259 0.683-0.378 0.189-0.09 0.375-0.181 0.564-0.263 1.787 2.379 3.119 4.849 3.86 7.187 1.013 3.212 0.79 5.755-0.632 7.175-0.012 0.012-0.023 0.029-0.039 0.041-0.808 0.784-1.955 1.182-3.411 1.182-0.539 0-1.109-0.058-1.698-0.168 0.22-0.189 0.449-0.373 0.685-0.57 1.495-1.214 3.181-2.593 3.212-5.144 0-0.099 0.002-0.193 0-0.295C78.129 54.577 77.875 53.872 77.496 53.314zM68.59 36.741c-1.624-1.034-3.253-1.855-4.822-2.404l0.304-0.783c1.641 0.586 3.327 1.423 4.994 2.49C68.914 36.282 68.754 36.52 68.59 36.741z" fill="#3f536f" data-fill-palette-color="accent"></path></svg></g></svg></g></svg></g></svg></g><defs></defs></svg><rect width="395.52" height="164.24861287582934" fill="none" stroke="none" visibility="hidden"></rect></g></svg></g></svg>