<svg xmlns="http://www.w3.org/2000/svg" version="1.1" xmlns:xlink="http://www.w3.org/1999/xlink" xmlns:svgjs="http://svgjs.dev/svgjs" width="1000" height="164" viewBox="0 0 1000 164"><g transform="matrix(1,0,0,1,-0.6060606060606233,-0.25971924404183255)"><svg viewBox="0 0 396 65" data-background-color="#ffffff" preserveAspectRatio="xMidYMid meet" height="164" width="1000" xmlns="http://www.w3.org/2000/svg" xmlns:xlink="http://www.w3.org/1999/xlink"><g id="tight-bounds" transform="matrix(1,0,0,1,0.2400000000000091,0.10293750526048484)"><svg viewBox="0 0 395.52 64.79412498947903" height="64.79412498947903" width="395.52"><g><svg viewBox="0 0 395.52 64.79412498947903" height="64.79412498947903" width="395.52"><g><svg viewBox="0 0 530.7720027927895 86.95112128305045" height="64.79412498947903" width="395.52"><g transform="matrix(1,0,0,1,133.27440279278957,4.227007427110891)"><svg viewBox="0 0 397.4975999999999 78.49710642882867" height="78.49710642882867" width="397.4975999999999"><g id="textblocktransform"><svg viewBox="0 0 397.4975999999999 78.49710642882867" height="78.49710642882867" width="397.4975999999999" id="textblock"><g><rect width="397.4975999999999" height="3.991000158045624" x="0" y="48.95686785925752" fill="#2e2e2e" opacity="1" stroke-width="0" stroke="transparent" fill-opacity="1" class="rect-r$-0" data-fill-palette-color="primary" rx="1%" id="r$-0" data-palette-color="#2e2e2e"></rect></g><g transform="matrix(1,0,0,1,0.9887999999999693,0)"><svg viewBox="0 0 395.52 44.255427882502204" height="44.255427882502204" width="395.52"><g transform="matrix(1,0,0,1,0,0)"><svg width="395.52" viewBox="4 -40.5 392.313466796875 43.9" height="44.255427882502204" data-palette-color="#2e2e2e"><g transform="matrix(1,0,0,1,0,0)"><g><svg width="18.09564453125" viewBox="1.78 -36.36 74.21 36.36" height="8.866000000000001" data-palette-color="#2e2e2e" id="scriptelement" x="378.217822265625" y="-8.866000000000001"><path d="M12.91-30.02L1.78-30.02 1.78-36.36 31.64-36.36 31.64-30.02 20.51-30.02 20.51 0 12.91 0 12.91-30.02ZM36.57 0L36.57-36.36 46.06-36.36 56.07-11.93 56.5-11.93 66.51-36.36 75.99-36.36 75.99 0 68.53 0 68.53-23.67 68.23-23.67 58.82-0.18 53.74-0.18 44.33-23.76 44.03-23.76 44.03 0 36.57 0Z" opacity="1" transform="matrix(1,0,0,1,0,0)" fill="#2e2e2e" class="undefined-123" data-fill-palette-color="primary" id="lv-123"></path></svg></g></g><path d="M26.6 0.05L7.15 0.05Q5.3 0.05 4.65-0.9 4-1.85 4-3L4-3 4-37.55Q4-39.95 6.9-39.95L6.9-39.95Q9.9-39.95 9.9-37.55L9.9-37.55 9.9-5 26.6-5Q28.4-5 28.4-2.55L28.4-2.55Q28.5 0.05 26.6 0.05L26.6 0.05ZM39.15-37.55L39.15-2.1Q39.15 0.3 36.15 0.3L36.15 0.3Q33.2 0.3 33.2-2.1L33.2-2.1 33.2-37.55Q33.2-39.95 36.15-39.95L36.15-39.95Q39.15-39.95 39.15-37.55L39.15-37.55ZM56.4-5L64.65-5Q66-5 67.15-5.73 68.3-6.45 68.3-8.15L68.3-8.15 68.2-31.3Q68.2-32.55 67.45-33.6 66.7-34.65 64.8-34.65L64.8-34.65 56.4-34.65Q54.55-34.65 53.77-33.6 53-32.55 53-31.3L53-31.3 53-8.4Q53-7.1 53.77-6.05 54.55-5 56.4-5L56.4-5ZM65.05-11.6L65.05-11.6Q65.05-9.85 63.85-8.65 62.65-7.45 60.9-7.45L60.9-7.45Q59.2-7.45 58-8.65 56.8-9.85 56.8-11.6L56.8-11.6Q56.8-13.3 58-14.5 59.2-15.7 60.9-15.7L60.9-15.7Q62.65-15.7 63.85-14.5 65.05-13.3 65.05-11.6ZM72.9-3.65L76.09-0.4Q76.59 0.1 76.59 0.85L76.59 0.85Q76.59 1.25 76.4 1.65 76.2 2.05 75.75 2.45L75.75 2.45Q74.84 3.4 74.15 3.4L74.15 3.4Q73.59 3.4 72.95 2.75L72.95 2.75 69.5-0.7Q67.55 0.05 66.09 0.05L66.09 0.05 55.2 0.05Q53.9 0.05 52.52-0.48 51.15-1 49.85-1.95L49.85-1.95Q47.15-3.95 47.15-8L47.15-8 47.15-31.75Q47.15-33.75 47.85-35.27 48.55-36.8 49.85-37.75L49.85-37.75 49.8-37.75Q51.05-38.6 52.47-39.15 53.9-39.7 55.2-39.7L55.2-39.7 66.09-39.7Q67.34-39.7 68.75-39.15 70.15-38.6 71.45-37.75L71.45-37.75 71.4-37.75Q72.7-36.8 73.4-35.27 74.09-33.75 74.09-31.75L74.09-31.75 74.09-8Q74.09-6.8 73.77-5.7 73.45-4.6 72.9-3.65L72.9-3.65ZM109.14-37.55L109.14-8Q109.14-3.95 106.44-1.95L106.44-1.95Q105.14-1 103.77-0.48 102.39 0.05 101.09 0.05L101.09 0.05 90.19 0.05Q88.89 0.05 87.52-0.48 86.14-1 84.84-1.95L84.84-1.95Q83.54-2.95 82.84-4.42 82.14-5.9 82.14-8L82.14-8 82.14-37.55Q82.14-39.95 85.09-39.95L85.09-39.95Q88.09-39.95 88.09-37.55L88.09-37.55 88.09-8.4Q88.09-7.1 88.84-6.05 89.59-5 91.44-5L91.44-5 99.84-5Q101.69-5 102.44-6.05 103.19-7.1 103.19-8.4L103.19-8.4 103.19-37.55Q103.19-39.95 106.14-39.95L106.14-39.95Q109.14-39.95 109.14-37.55L109.14-37.55ZM122.94-37.55L122.94-2.1Q122.94 0.3 119.94 0.3L119.94 0.3Q116.99 0.3 116.99-2.1L116.99-2.1 116.99-37.55Q116.99-39.95 119.94-39.95L119.94-39.95Q122.94-39.95 122.94-37.55L122.94-37.55ZM141.79-5L148.59-5Q150.44-5 151.19-6.05 151.94-7.1 151.94-8.4L151.94-8.4 151.94-31.3Q151.94-32.55 151.19-33.6 150.44-34.65 148.59-34.65L148.59-34.65 136.89-34.65 136.84-2.05Q136.84-0.95 135.99-0.3 135.14 0.35 133.89 0.35L133.89 0.35Q130.94 0.35 130.94-2.05L130.94-2.05 130.94-36.7Q130.94-38.5 131.86-39.1 132.79-39.7 134.09-39.7L134.09-39.7 149.84-39.7Q151.14-39.7 152.54-39.15 153.94-38.6 155.24-37.75L155.24-37.75 155.19-37.75Q156.49-36.8 157.19-35.27 157.89-33.75 157.89-31.75L157.89-31.75 157.89-8Q157.89-3.95 155.19-1.95L155.19-1.95Q153.89-1 152.51-0.48 151.14 0.05 149.84 0.05L149.84 0.05 141.44 0.05Q140.59 0.05 140.11-0.65 139.64-1.35 139.64-2.5L139.64-2.5Q139.64-5 141.79-5L141.79-5ZM203.03 0.05L183.58 0.05Q181.73 0.05 181.08-0.9 180.43-1.85 180.43-3L180.43-3 180.43-37.55Q180.43-39.95 183.33-39.95L183.33-39.95Q186.33-39.95 186.33-37.55L186.33-37.55 186.33-5 203.03-5Q204.83-5 204.83-2.55L204.83-2.55Q204.93 0.05 203.03 0.05L203.03 0.05ZM236.38-37.55L236.38-8Q236.38-3.95 233.68-1.95L233.68-1.95Q232.38-1 231.01-0.48 229.63 0.05 228.33 0.05L228.33 0.05 217.43 0.05Q216.13 0.05 214.76-0.48 213.38-1 212.08-1.95L212.08-1.95Q210.78-2.95 210.08-4.42 209.38-5.9 209.38-8L209.38-8 209.38-37.55Q209.38-39.95 212.33-39.95L212.33-39.95Q215.33-39.95 215.33-37.55L215.33-37.55 215.33-8.4Q215.33-7.1 216.08-6.05 216.83-5 218.68-5L218.68-5 227.08-5Q228.93-5 229.68-6.05 230.43-7.1 230.43-8.4L230.43-8.4 230.43-37.55Q230.43-39.95 233.38-39.95L233.38-39.95Q236.38-39.95 236.38-37.55L236.38-37.55ZM255.73-24L264.48-38.8Q264.88-39.35 265.3-39.7 265.73-40.05 266.43-40.05L266.43-40.05Q267.13-40.05 268.03-39.6L268.03-39.6Q269.93-38.7 269.93-37.3L269.93-37.3Q269.93-36.95 269.85-36.58 269.78-36.2 269.58-35.95L269.58-35.95 269.58-36 259.93-19.6 269.33-3.7Q269.58-3.1 269.58-2.5L269.58-2.5Q269.58-1.05 267.98-0.2L267.98-0.2Q266.78 0.4 265.98 0.4L265.98 0.4Q264.98 0.4 264.18-0.75L264.18-0.75 255.58-15.3Q254.63-13.65 253.53-11.8 252.43-9.95 251.3-8.03 250.18-6.1 249.05-4.25 247.93-2.4 246.98-0.75L246.98-0.75Q246.58-0.2 246.18 0.1 245.78 0.4 245.18 0.4L245.18 0.4Q244.33 0.4 243.23-0.2L243.23-0.2Q241.53-1.15 241.53-2.5L241.53-2.5Q241.53-2.85 241.63-3.13 241.73-3.4 241.88-3.75L241.88-3.75 241.88-3.7Q244.18-7.65 246.6-11.7 249.03-15.75 251.38-19.75L251.38-19.75 241.83-36Q241.68-36.3 241.53-36.7 241.38-37.1 241.38-37.35L241.38-37.35Q241.38-38.7 243.38-39.6L243.38-39.6Q244.18-40.05 244.98-40.05L244.98-40.05Q245.63-40.05 246.08-39.7 246.53-39.35 246.93-38.8L246.93-38.8 255.73-24ZM301.73-37.55L301.73-8Q301.73-3.95 299.03-1.95L299.03-1.95Q297.73-1 296.35-0.48 294.98 0.05 293.68 0.05L293.68 0.05 282.78 0.05Q281.48 0.05 280.1-0.48 278.73-1 277.43-1.95L277.43-1.95Q276.13-2.95 275.43-4.42 274.73-5.9 274.73-8L274.73-8 274.73-37.55Q274.73-39.95 277.68-39.95L277.68-39.95Q280.68-39.95 280.68-37.55L280.68-37.55 280.68-8.4Q280.68-7.1 281.43-6.05 282.18-5 284.03-5L284.03-5 292.43-5Q294.28-5 295.03-6.05 295.78-7.1 295.78-8.4L295.78-8.4 295.78-37.55Q295.78-39.95 298.73-39.95L298.73-39.95Q301.73-39.95 301.73-37.55L301.73-37.55ZM332.97-0.6L323.52-16.45 319.67-16.45Q318.82-16.45 318.35-17.13 317.87-17.8 317.87-18.95L317.87-18.95Q317.87-21.5 319.97-21.5L319.97-21.5 325.82-21.5Q327.67-21.5 328.42-22.55 329.17-23.6 329.17-24.85L329.17-24.85 329.17-31.3Q329.17-32.55 328.42-33.6 327.67-34.65 325.82-34.65L325.82-34.65 315.27-34.65 315.27-2.05Q315.27 0.35 312.32 0.35L312.32 0.35Q309.37 0.35 309.37-2.05L309.37-2.05 309.37-36.7Q309.37-38.5 310.3-39.1 311.22-39.7 312.52-39.7L312.52-39.7 327.07-39.7Q328.37-39.7 329.77-39.15 331.17-38.6 332.47-37.75L332.47-37.75 332.42-37.75Q333.72-36.8 334.42-35.27 335.12-33.75 335.12-31.75L335.12-31.75 335.12-24.45Q335.12-20.4 332.42-18.4L332.42-18.4Q331.87-18 331.25-17.65 330.62-17.3 329.97-16.95L329.97-16.95 337.97-3.75Q338.12-3.5 338.27-3.1 338.42-2.7 338.42-2.45L338.42-2.45Q338.42-1.25 336.72-0.15L336.72-0.15 336.72-0.2Q335.57 0.5 334.77 0.5L334.77 0.5Q333.62 0.5 332.92-0.65L332.92-0.65 332.97-0.6ZM357.67-15.15L357.67-2Q357.67 0.4 354.72 0.4L354.72 0.4Q351.77 0.4 351.77-2L351.77-2 351.77-15.3 340.57-36.6Q340.27-37.25 340.27-37.95L340.27-37.95Q340.27-39.4 341.97-40.1L341.97-40.1 341.92-40.1Q343.02-40.5 343.67-40.5L343.67-40.5Q344.97-40.5 345.67-39.2L345.67-39.2 354.77-22.1Q355.77-24 356.92-26.18 358.07-28.35 359.25-30.6 360.42-32.85 361.57-35.05 362.72-37.25 363.77-39.2L363.77-39.2Q364.17-39.8 364.65-40.15 365.12-40.5 365.82-40.5L365.82-40.5Q366.52-40.5 367.47-40.1L367.47-40.1 367.42-40.1Q369.17-39.35 369.17-37.9L369.17-37.9Q369.17-37.6 369.12-37.27 369.07-36.95 368.87-36.6L368.87-36.6Q368.42-35.7 367.75-34.4 367.07-33.1 365.85-30.78 364.62-28.45 362.67-24.73 360.72-21 357.67-15.15L357.67-15.15Z" opacity="1" transform="matrix(1,0,0,1,0,0)" fill="#2e2e2e" class="wordmark-text-0" data-fill-palette-color="primary" id="text-0"></path></svg></g></svg></g><g transform="matrix(1,0,0,1,137.92457935967656,57.64930799405846)"><svg viewBox="0 0 232.20979200000002 20.847798434770215" height="20.847798434770215" width="232.20979200000002"><g transform="matrix(1,0,0,1,0,0)"><svg width="232.20979200000002" viewBox="1.75 -35.5 400.97 36.00178571428572" height="20.847798434770215" data-palette-color="#494949"><path d="M14.15 0.5L14.15 0.5Q10.25 0.55 7.45-0.8 4.65-2.15 2.05-4.75L2.05-4.75Q1.95-4.85 1.85-5.03 1.75-5.2 1.75-5.5L1.75-5.5Q1.75-5.9 2.1-6.28 2.45-6.65 2.85-6.65L2.85-6.65Q3.3-6.65 3.7-6.2L3.7-6.2Q5.7-3.9 8.38-2.7 11.05-1.5 13.95-1.5L13.95-1.5Q16.5-1.5 18.5-2.33 20.5-3.15 21.65-4.67 22.8-6.2 22.8-8.25L22.8-8.25Q22.75-10.8 21.4-12.35 20.05-13.9 17.93-14.9 15.8-15.9 13.45-16.75L13.45-16.75Q11.6-17.45 9.8-18.2 8-18.95 6.55-20.03 5.1-21.1 4.25-22.73 3.4-24.35 3.4-26.75L3.4-26.75Q3.4-29.2 4.73-31.18 6.05-33.15 8.53-34.33 11-35.5 14.4-35.5L14.4-35.5Q17.25-35.5 19.95-34.48 22.65-33.45 24.2-31.4L24.2-31.4Q24.7-30.7 24.7-30.35L24.7-30.35Q24.7-30 24.33-29.65 23.95-29.3 23.5-29.3L23.5-29.3Q23.1-29.3 22.85-29.6L22.85-29.6Q21.95-30.8 20.68-31.68 19.4-32.55 17.8-33.02 16.2-33.5 14.4-33.5L14.4-33.5Q11.95-33.5 9.95-32.7 7.95-31.9 6.75-30.43 5.55-28.95 5.55-26.8L5.55-26.8Q5.55-24.5 6.88-23.03 8.2-21.55 10.25-20.58 12.3-19.6 14.45-18.8L14.45-18.8Q16.35-18.15 18.23-17.38 20.1-16.6 21.63-15.45 23.15-14.3 24.05-12.55 24.95-10.8 24.95-8.15L24.95-8.15Q24.95-5.85 23.63-3.9 22.3-1.95 19.9-0.75 17.5 0.45 14.15 0.5ZM42.4 0L42.4 0Q41.95 0 41.67-0.3 41.4-0.6 41.4-1L41.4-1 41.4-33.8 43.4-33.8 43.4-1Q43.4-0.6 43.1-0.3 42.8 0 42.4 0ZM54.55-33.1L30.25-33.1Q29.85-33.1 29.55-33.38 29.25-33.65 29.25-34.05L29.25-34.05Q29.25-34.45 29.55-34.73 29.85-35 30.25-35L30.25-35 54.55-35Q54.95-35 55.25-34.73 55.55-34.45 55.55-34.05L55.55-34.05Q55.55-33.6 55.25-33.35 54.95-33.1 54.55-33.1L54.55-33.1ZM70.4-32.85L71.15-32.45 58.5-0.65Q58.4-0.35 58.15-0.18 57.9 0 57.59 0L57.59 0Q57.09 0 56.84-0.25 56.59-0.5 56.55-0.85L56.55-0.85Q56.5-1.05 56.59-1.35L56.59-1.35 70.05-34.45Q70.2-34.85 70.42-34.98 70.65-35.1 71-35.1L71-35.1Q71.4-35.1 71.65-34.93 71.9-34.75 72-34.45L72-34.45 85.45-1.35Q85.5-1.2 85.5-0.95L85.5-0.95Q85.5-0.5 85.2-0.25 84.9 0 84.45 0L84.45 0Q84.09 0 83.82-0.18 83.55-0.35 83.45-0.65L83.45-0.65 70.4-32.85ZM79.3-10.85L61.9-10.85 62.59-12.85 78.8-12.85 79.3-10.85ZM110.44-35.2L110.44-35.2Q110.94-35.2 111.19-34.85 111.44-34.5 111.44-34.25L111.44-34.25Q111.44-34.05 111.39-33.9 111.34-33.75 111.24-33.6L111.24-33.6 99.39-17.5 99.84-18.95 99.84-1Q99.84-0.6 99.54-0.3 99.24 0 98.79 0L98.79 0Q98.29 0 98.02-0.3 97.74-0.6 97.74-1L97.74-1 97.74-18.6 97.99-17.55 86.29-33.6Q86.19-33.75 86.14-33.9 86.09-34.05 86.09-34.25L86.09-34.25Q86.09-34.65 86.44-34.93 86.79-35.2 87.14-35.2L87.14-35.2Q87.69-35.2 87.99-34.75L87.99-34.75 99.09-19.6 98.59-19.7 109.59-34.75Q109.89-35.2 110.44-35.2ZM131.99 0L131.99 0Q131.49 0 131.21-0.3 130.94-0.6 130.94-1L130.94-1 130.94-34Q130.94-34.4 131.24-34.7 131.54-35 131.94-35L131.94-35 145.14-35Q148.09-35 150.31-33.83 152.54-32.65 153.79-30.6 155.04-28.55 155.04-25.95L155.04-25.95Q155.04-23.65 154.21-21.8 153.39-19.95 151.91-18.73 150.44-17.5 148.54-16.95L148.54-16.95 146.24-17.35Q148.24-17.35 150.04-16.32 151.84-15.3 152.99-13.33 154.14-11.35 154.14-8.5L154.14-8.5Q154.14-6.05 154.36-4.78 154.59-3.5 154.96-2.9 155.34-2.3 155.84-1.95L155.84-1.95Q156.14-1.75 156.29-1.45 156.44-1.15 156.34-0.75L156.34-0.75Q156.24-0.45 156.01-0.28 155.79-0.1 155.54-0.05 155.29 0 154.99-0.15L154.99-0.15Q154.29-0.55 153.61-1.35 152.94-2.15 152.49-3.8 152.04-5.45 152.04-8.5L152.04-8.5Q152.04-10.85 151.31-12.25 150.59-13.65 149.46-14.4 148.34-15.15 147.06-15.4 145.79-15.65 144.74-15.65L144.74-15.65 132.59-15.65 133.04-16.25 133.04-1Q133.04-0.6 132.74-0.3 132.44 0 131.99 0ZM133.04-17.1L132.54-17.65 145.39-17.65Q147.39-17.85 149.09-18.85 150.79-19.85 151.86-21.65 152.94-23.45 152.94-25.9L152.94-25.9Q152.94-28.95 150.76-30.98 148.59-33 144.89-33L144.89-33 132.79-33 133.04-33.35 133.04-17.1ZM165.13-35L165.13-35 183.98-35Q184.38-35 184.69-34.7 184.98-34.4 184.98-34L184.98-34Q184.98-33.55 184.69-33.27 184.38-33 183.98-33L183.98-33 165.73-33 166.23-33.85 166.23-18.35 165.63-19.05 181.73-19.05Q182.13-19.05 182.44-18.75 182.73-18.45 182.73-18.05L182.73-18.05Q182.73-17.6 182.44-17.32 182.13-17.05 181.73-17.05L181.73-17.05 165.73-17.05 166.23-17.6 166.23-1.75 166.03-2 183.98-2Q184.38-2 184.69-1.7 184.98-1.4 184.98-1L184.98-1Q184.98-0.55 184.69-0.28 184.38 0 183.98 0L183.98 0 165.13 0Q164.73 0 164.44-0.3 164.13-0.6 164.13-1L164.13-1 164.13-34Q164.13-34.4 164.44-34.7 164.73-35 165.13-35ZM193.48 0L193.48 0Q193.03 0 192.76-0.3 192.48-0.6 192.48-1L192.48-1 192.48-34Q192.48-34.4 192.78-34.7 193.08-35 193.48-35L193.48-35 212.33-35Q212.73-35 213.03-34.7 213.33-34.4 213.33-34L213.33-34Q213.33-33.55 213.03-33.27 212.73-33 212.33-33L212.33-33 194.33-33 194.48-33.2 194.48-18.8 194.28-19.2 210.08-19.2Q210.48-19.2 210.78-18.9 211.08-18.6 211.08-18.2L211.08-18.2Q211.08-17.75 210.78-17.48 210.48-17.2 210.08-17.2L210.08-17.2 194.18-17.2 194.48-17.6 194.48-1Q194.48-0.6 194.21-0.3 193.93 0 193.48 0ZM221.88 0L221.88 0Q221.38 0 221.1-0.3 220.83-0.6 220.83-1L220.83-1 220.83-34Q220.83-34.4 221.13-34.7 221.43-35 221.83-35L221.83-35 235.03-35Q237.98-35 240.2-33.83 242.43-32.65 243.68-30.6 244.93-28.55 244.93-25.95L244.93-25.95Q244.93-23.65 244.1-21.8 243.28-19.95 241.8-18.73 240.33-17.5 238.43-16.95L238.43-16.95 236.13-17.35Q238.13-17.35 239.93-16.32 241.73-15.3 242.88-13.33 244.03-11.35 244.03-8.5L244.03-8.5Q244.03-6.05 244.25-4.78 244.48-3.5 244.85-2.9 245.23-2.3 245.73-1.95L245.73-1.95Q246.03-1.75 246.18-1.45 246.33-1.15 246.23-0.75L246.23-0.75Q246.13-0.45 245.9-0.28 245.68-0.1 245.43-0.05 245.18 0 244.88-0.15L244.88-0.15Q244.18-0.55 243.5-1.35 242.83-2.15 242.38-3.8 241.93-5.45 241.93-8.5L241.93-8.5Q241.93-10.85 241.2-12.25 240.48-13.65 239.35-14.4 238.23-15.15 236.95-15.4 235.68-15.65 234.63-15.65L234.63-15.65 222.48-15.65 222.93-16.25 222.93-1Q222.93-0.6 222.63-0.3 222.33 0 221.88 0ZM222.93-17.1L222.43-17.65 235.28-17.65Q237.28-17.85 238.98-18.85 240.68-19.85 241.75-21.65 242.83-23.45 242.83-25.9L242.83-25.9Q242.83-28.95 240.65-30.98 238.48-33 234.78-33L234.78-33 222.68-33 222.93-33.35 222.93-17.1ZM255.03-35L255.03-35 273.88-35Q274.28-35 274.58-34.7 274.88-34.4 274.88-34L274.88-34Q274.88-33.55 274.58-33.27 274.28-33 273.88-33L273.88-33 255.63-33 256.13-33.85 256.13-18.35 255.53-19.05 271.63-19.05Q272.03-19.05 272.33-18.75 272.63-18.45 272.63-18.05L272.63-18.05Q272.63-17.6 272.33-17.32 272.03-17.05 271.63-17.05L271.63-17.05 255.63-17.05 256.13-17.6 256.13-1.75 255.93-2 273.88-2Q274.28-2 274.58-1.7 274.88-1.4 274.88-1L274.88-1Q274.88-0.55 274.58-0.28 274.28 0 273.88 0L273.88 0 255.03 0Q254.63 0 254.33-0.3 254.03-0.6 254.03-1L254.03-1 254.03-34Q254.03-34.4 254.33-34.7 254.63-35 255.03-35ZM291.52 0.5L291.52 0.5Q287.63 0.55 284.82-0.8 282.02-2.15 279.43-4.75L279.43-4.75Q279.32-4.85 279.23-5.03 279.13-5.2 279.13-5.5L279.13-5.5Q279.13-5.9 279.48-6.28 279.82-6.65 280.23-6.65L280.23-6.65Q280.68-6.65 281.07-6.2L281.07-6.2Q283.07-3.9 285.75-2.7 288.43-1.5 291.32-1.5L291.32-1.5Q293.88-1.5 295.88-2.33 297.88-3.15 299.02-4.67 300.18-6.2 300.18-8.25L300.18-8.25Q300.13-10.8 298.77-12.35 297.43-13.9 295.3-14.9 293.18-15.9 290.82-16.75L290.82-16.75Q288.98-17.45 287.18-18.2 285.38-18.95 283.93-20.03 282.48-21.1 281.63-22.73 280.77-24.35 280.77-26.75L280.77-26.75Q280.77-29.2 282.1-31.18 283.43-33.15 285.9-34.33 288.38-35.5 291.77-35.5L291.77-35.5Q294.63-35.5 297.32-34.48 300.02-33.45 301.57-31.4L301.57-31.4Q302.07-30.7 302.07-30.35L302.07-30.35Q302.07-30 301.7-29.65 301.32-29.3 300.88-29.3L300.88-29.3Q300.48-29.3 300.23-29.6L300.23-29.6Q299.32-30.8 298.05-31.68 296.77-32.55 295.18-33.02 293.57-33.5 291.77-33.5L291.77-33.5Q289.32-33.5 287.32-32.7 285.32-31.9 284.13-30.43 282.93-28.95 282.93-26.8L282.93-26.8Q282.93-24.5 284.25-23.03 285.57-21.55 287.63-20.58 289.68-19.6 291.82-18.8L291.82-18.8Q293.73-18.15 295.6-17.38 297.48-16.6 299-15.45 300.52-14.3 301.43-12.55 302.32-10.8 302.32-8.15L302.32-8.15Q302.32-5.85 301-3.9 299.68-1.95 297.27-0.75 294.88 0.45 291.52 0.5ZM310.92-35L310.92-35Q311.37-35 311.67-34.7 311.97-34.4 311.97-33.95L311.97-33.95 311.97-1.05Q311.92-0.6 311.62-0.3 311.32 0 310.92 0L310.92 0Q310.42 0 310.15-0.3 309.87-0.6 309.87-1.05L309.87-1.05 309.87-33.95Q309.87-34.4 310.17-34.7 310.47-35 310.92-35ZM334.82-35L334.82-35Q335.27-35 335.57-34.7 335.87-34.4 335.87-33.95L335.87-33.95 335.87-1.05Q335.82-0.6 335.52-0.3 335.22 0 334.82 0L334.82 0Q334.32 0 334.05-0.3 333.77-0.6 333.77-1.05L333.77-1.05 333.77-33.95Q333.77-34.4 334.07-34.7 334.37-35 334.82-35ZM310.37-17L310.67-19 334.92-19 334.82-17 310.37-17ZM346.87-35L346.87-35 365.72-35Q366.12-35 366.42-34.7 366.72-34.4 366.72-34L366.72-34Q366.72-33.55 366.42-33.27 366.12-33 365.72-33L365.72-33 347.47-33 347.97-33.85 347.97-18.35 347.37-19.05 363.47-19.05Q363.87-19.05 364.17-18.75 364.47-18.45 364.47-18.05L364.47-18.05Q364.47-17.6 364.17-17.32 363.87-17.05 363.47-17.05L363.47-17.05 347.47-17.05 347.97-17.6 347.97-1.75 347.77-2 365.72-2Q366.12-2 366.42-1.7 366.72-1.4 366.72-1L366.72-1Q366.72-0.55 366.42-0.28 366.12 0 365.72 0L365.72 0 346.87 0Q346.47 0 346.17-0.3 345.87-0.6 345.87-1L345.87-1 345.87-34Q345.87-34.4 346.17-34.7 346.47-35 346.87-35ZM375.22-35L388.22-35Q391.97-35 394.72-33.58 397.47-32.15 399.24-29.68 401.02-27.2 401.87-24.05 402.72-20.9 402.72-17.5L402.72-17.5Q402.72-12.7 401.19-8.72 399.67-4.75 396.47-2.38 393.27 0 388.22 0L388.22 0 375.22 0Q374.82 0 374.52-0.3 374.22-0.6 374.22-1L374.22-1 374.22-34Q374.22-34.4 374.52-34.7 374.82-35 375.22-35L375.22-35ZM376.02-2L387.72-2Q392.32-2 395.14-4.08 397.97-6.15 399.29-9.68 400.62-13.2 400.62-17.5L400.62-17.5Q400.62-20.55 399.89-23.35 399.17-26.15 397.62-28.33 396.07-30.5 393.62-31.75 391.17-33 387.72-33L387.72-33 376.02-33 376.32-33.4 376.32-1.55 376.02-2Z" opacity="1" transform="matrix(1,0,0,1,0,0)" fill="#494949" class="slogan-text-1" data-fill-palette-color="secondary" id="text-1"></path></svg></g></svg></g></svg></g></svg></g><g><svg viewBox="0 0 122.82675839999997 86.95112128305045" height="86.95112128305045" width="122.82675839999997"><g><svg xmlns="http://www.w3.org/2000/svg" xmlns:xlink="http://www.w3.org/1999/xlink" version="1.1" x="0" y="0" viewBox="6.99 19.552 86.02 60.895" enable-background="new 0 0 100 100" xml:space="preserve" height="86.95112128305045" width="122.82675839999997" class="icon-icon-0" data-fill-palette-color="accent" id="icon-0"><path d="M50 19.552C35.083 32.83 35.781 43.971 35.781 43.971c0 7.854 6.366 14.219 14.219 14.219 7.854 0 14.219-6.365 14.219-14.219C64.219 43.971 64.917 32.83 50 19.552zM61.571 43.566c-0.021 0.38-0.043 0.761-0.065 1.142l-0.044 0.57-0.113 0.562c-0.074 0.373-0.159 0.742-0.241 1.107-0.129 0.354-0.256 0.703-0.382 1.049-0.064 0.171-0.127 0.342-0.191 0.511-0.084 0.16-0.17 0.319-0.253 0.476-0.171 0.313-0.331 0.622-0.503 0.917-0.188 0.285-0.397 0.547-0.588 0.808-0.204 0.251-0.355 0.529-0.586 0.734-0.215 0.213-0.422 0.42-0.622 0.617-0.369 0.414-0.827 0.695-1.184 0.969-0.185 0.131-0.349 0.266-0.513 0.363-0.17 0.088-0.324 0.168-0.465 0.242-0.562 0.293-0.894 0.443-0.894 0.443s0.246-0.271 0.696-0.715c0.112-0.111 0.237-0.234 0.374-0.367 0.118-0.145 0.247-0.299 0.386-0.463 0.263-0.338 0.59-0.664 0.867-1.113 0.291-0.431 0.62-0.877 0.882-1.405 0.137-0.259 0.293-0.516 0.423-0.79 0.11-0.287 0.235-0.572 0.355-0.863 0.062-0.145 0.123-0.29 0.187-0.438 0.044-0.154 0.089-0.309 0.134-0.464 0.09-0.311 0.183-0.623 0.283-0.936 0.058-0.323 0.116-0.649 0.173-0.977l0.096-0.49 0.028-0.499 0.074-0.997c0.016-0.406 0.006-0.644-0.018-0.986-0.047-0.658-0.136-1.318-0.237-1.955-0.121-0.636-0.211-1.26-0.366-1.841-0.134-0.584-0.257-1.143-0.411-1.65-0.152-0.505-0.253-0.988-0.384-1.4-0.141-0.41-0.247-0.776-0.338-1.078-0.181-0.603-0.269-0.961-0.269-0.961s0.219 0.288 0.574 0.815c0.176 0.264 0.394 0.585 0.629 0.963 0.234 0.377 0.453 0.828 0.7 1.317 0.121 0.246 0.26 0.499 0.38 0.769 0.108 0.276 0.219 0.563 0.334 0.855 0.244 0.583 0.441 1.224 0.626 1.895 0.108 0.332 0.156 0.687 0.235 1.039 0.082 0.349 0.125 0.719 0.17 1.088C61.555 42.788 61.588 43.26 61.571 43.566z" fill="#10af8c" data-fill-palette-color="accent"></path><g fill="#10af8c" data-fill-palette-color="accent"><path d="M50 73.434c-9.283 0-18.68-2.057-18.68-5.99 0-3.932 9.396-5.988 18.68-5.988 9.282 0 18.679 2.057 18.679 5.988C68.679 71.377 59.282 73.434 50 73.434zM50 63.156c-10.363 0-16.979 2.539-16.979 4.287 0 1.75 6.615 4.289 16.979 4.289s16.979-2.539 16.979-4.289C66.979 65.695 60.363 63.156 50 63.156z" fill="#10af8c" data-fill-palette-color="accent"></path></g><path d="M58.607 58.41c-0.969 0.598-2.005 1.094-3.093 1.48 13.979 0.76 23.313 4.32 23.313 7.553 0 3.645-11.839 7.705-28.828 7.705s-28.828-4.061-28.828-7.705c0-3.232 9.334-6.793 23.314-7.553-1.088-0.387-2.123-0.883-3.092-1.48-11.711 1.018-21.924 4.113-21.924 9.033 0 6.111 15.729 9.406 30.529 9.406 14.799 0 30.53-3.295 30.53-9.406C80.53 62.523 70.316 59.428 58.607 58.41z" fill="#10af8c" data-fill-palette-color="accent"></path><path d="M62.564 55.016c-0.464 0.545-0.96 1.063-1.489 1.543 18.466 1.424 30.233 6.291 30.233 10.885 0 5.459-16.6 11.303-41.309 11.303S8.691 72.902 8.691 67.443c0-4.594 11.768-9.461 30.234-10.885-0.529-0.48-1.025-0.998-1.489-1.543C21.003 56.518 6.99 60.932 6.99 67.443c0 8.141 21.868 13.004 43.01 13.004s43.01-4.863 43.01-13.004C93.01 60.932 78.999 56.518 62.564 55.016z" fill="#10af8c" data-fill-palette-color="accent"></path></svg></g></svg></g></svg></g></svg></g><defs></defs></svg><rect width="395.52" height="64.79412498947903" fill="none" stroke="none" visibility="hidden"></rect></g></svg></g></svg>