<svg id="visual" viewBox="0 0 960 540" width="960" height="540" xmlns="http://www.w3.org/2000/svg" xmlns:xlink="http://www.w3.org/1999/xlink" version="1.1"><rect x="0" y="0" width="960" height="540" fill="#ffffff"></rect><path d="M0 483L26.7 484.7C53.3 486.3 106.7 489.7 160 489.8C213.3 490 266.7 487 320 482.3C373.3 477.7 426.7 471.3 480 465.3C533.3 459.3 586.7 453.7 640 454.5C693.3 455.3 746.7 462.7 800 468C853.3 473.3 906.7 476.7 933.3 478.3L960 480L960 541L933.3 541C906.7 541 853.3 541 800 541C746.7 541 693.3 541 640 541C586.7 541 533.3 541 480 541C426.7 541 373.3 541 320 541C266.7 541 213.3 541 160 541C106.7 541 53.3 541 26.7 541L0 541Z" fill="#366bc0" stroke-linecap="round" stroke-linejoin="miter"></path></svg>