<svg id="visual" viewBox="0 0 960 540" width="960" height="540" xmlns="http://www.w3.org/2000/svg" xmlns:xlink="http://www.w3.org/1999/xlink" version="1.1"><rect x="0" y="0" width="960" height="540" fill="#ffffff"></rect><path d="M0 508L22.8 508C45.7 508 91.3 508 137 511.5C182.7 515 228.3 522 274 524C319.7 526 365.3 523 411.2 517.2C457 511.3 503 502.7 548.8 500.3C594.7 498 640.3 502 686 506C731.7 510 777.3 514 823 512.2C868.7 510.3 914.3 502.7 937.2 498.8L960 495L960 541L937.2 541C914.3 541 868.7 541 823 541C777.3 541 731.7 541 686 541C640.3 541 594.7 541 548.8 541C503 541 457 541 411.2 541C365.3 541 319.7 541 274 541C228.3 541 182.7 541 137 541C91.3 541 45.7 541 22.8 541L0 541Z" fill="#366bc0" stroke-linecap="round" stroke-linejoin="miter"></path></svg>